<svg width="581" height="459" viewBox="0 0 581 459" fill="none" xmlns="http://www.w3.org/2000/svg">
<path fill-rule="evenodd" clip-rule="evenodd" d="M61.5067 78.7227C67.5943 78.7227 72.5276 73.7881 72.5276 67.7001C72.5276 61.6121 67.5943 56.6787 61.5067 56.6787C55.4187 56.6787 50.4853 61.6121 50.4853 67.7001C50.4853 73.7881 55.4187 78.7227 61.5067 78.7227ZM490.709 28.7627C498.65 28.7627 505.089 22.3241 505.089 14.3814C505.089 6.43872 498.65 6.10352e-05 490.709 6.10352e-05C482.765 6.10352e-05 476.326 6.43872 476.326 14.3814C476.326 22.3241 482.765 28.7627 490.709 28.7627ZM93.3113 458.231C41.9885 458.231 0 416.241 0 364.923C0 313.601 41.9885 271.609 93.3113 271.609C115.011 271.609 132.766 253.856 132.766 232.156C132.766 210.456 115.011 192.701 93.3113 192.701H88.6156C66.0557 192.701 47.5957 174.243 47.5957 151.68C47.5957 129.119 66.0557 110.661 88.6156 110.661H103.019C111.805 110.661 118.99 103.475 118.99 94.6921C118.99 85.9081 111.805 78.7201 103.019 78.7201H92.4353C86.3733 78.7201 81.4135 73.7614 81.4135 67.7001C81.4135 61.6374 86.3733 56.6787 92.4353 56.6787H163.589C173.114 56.6787 180.905 48.8854 180.905 39.3601C180.905 29.8361 173.114 22.0428 163.589 22.0428H142.314C136.251 22.0428 131.293 17.0828 131.293 11.0214C131.293 4.96008 136.251 6.10352e-05 142.314 6.10352e-05H453.906C461.815 6.10352e-05 468.287 6.47205 468.287 14.3814C468.287 22.2907 461.815 28.7627 453.906 28.7627H432.087C419.658 28.7627 409.489 38.9321 409.489 51.3587V51.3614C409.489 63.7894 419.658 73.9587 432.087 73.9587H516.494C524.402 73.9587 530.875 80.4321 530.875 88.3401C530.875 96.2507 524.402 102.723 516.494 102.723H502.682C491.221 102.723 481.843 112.1 481.843 123.56C481.843 135.021 491.221 144.399 502.682 144.399H521.477C550.917 144.399 575.005 168.485 575.005 197.924C575.005 227.363 550.917 251.449 521.477 251.449H515.35C487.035 251.449 463.869 274.616 463.869 302.932C463.869 331.247 487.035 354.417 515.35 354.417H528.619C557.169 354.417 580.527 377.773 580.527 406.327C580.527 434.876 557.169 458.231 528.619 458.231C380.911 458.231 241.019 458.231 93.3113 458.231Z" fill="#E1F3EB"/>
<path fill-rule="evenodd" clip-rule="evenodd" d="M306.909 43.8547C308.695 43.8547 310.153 42.3988 310.153 40.6108C310.153 38.8268 308.695 37.3694 306.909 37.3694C305.122 37.3694 303.666 38.8268 303.666 40.6108C303.666 42.3988 305.122 43.8547 306.909 43.8547Z" fill="white"/>
<path fill-rule="evenodd" clip-rule="evenodd" d="M140.62 144.757H194.408C195.854 144.757 197.037 145.94 197.037 147.385V178.223C197.037 179.669 195.854 180.852 194.408 180.852H140.62C139.173 180.852 137.99 179.669 137.99 178.223V147.385C137.99 145.94 139.173 144.757 140.62 144.757Z" fill="#523B5D"/>
<path fill-rule="evenodd" clip-rule="evenodd" d="M196.997 178.677C196.78 179.908 195.7 180.852 194.41 180.852H140.62C139.329 180.852 138.249 179.908 138.03 178.677L167.514 158.228L196.997 178.677Z" fill="#3A2B41"/>
<path fill-rule="evenodd" clip-rule="evenodd" d="M140.62 144.757H194.41C195.173 144.757 195.864 145.088 196.344 145.611L167.514 165.608L138.684 145.611C139.164 145.088 139.854 144.757 140.62 144.757Z" fill="#FB9301"/>
<path fill-rule="evenodd" clip-rule="evenodd" d="M420.701 223.324H437.476C439.206 223.324 440.62 224.739 440.62 226.468V243.243C440.62 244.973 439.206 246.387 437.476 246.387H420.701C418.969 246.387 417.556 244.973 417.556 243.243V226.468C417.556 224.739 418.969 223.324 420.701 223.324Z" fill="#B1CABF"/>
<path fill-rule="evenodd" clip-rule="evenodd" d="M420.701 252.375H437.476C439.206 252.375 440.62 253.792 440.62 255.523V272.296C440.62 274.027 439.206 275.44 437.476 275.44H420.701C418.969 275.44 417.556 274.027 417.556 272.296V255.523C417.556 253.792 418.969 252.375 420.701 252.375Z" fill="#B1CABF"/>
<path fill-rule="evenodd" clip-rule="evenodd" d="M420.701 281.428H437.476C439.206 281.428 440.62 282.843 440.62 284.572V301.347C440.62 303.076 439.206 304.492 437.476 304.492H420.701C418.969 304.492 417.556 303.076 417.556 301.347V284.572C417.556 282.843 418.969 281.428 420.701 281.428Z" fill="#B1CABF"/>
<path fill-rule="evenodd" clip-rule="evenodd" d="M420.701 310.479H437.476C439.206 310.479 440.62 311.892 440.62 313.623V330.397C440.62 332.127 439.206 333.545 437.476 333.545H420.701C418.969 333.545 417.556 332.127 417.556 330.397V313.623C417.556 311.892 418.969 310.479 420.701 310.479Z" fill="#B1CABF"/>
<path fill-rule="evenodd" clip-rule="evenodd" d="M418.096 221.105H434.869C436.6 221.105 438.014 222.521 438.014 224.248V241.023C438.014 242.753 436.6 244.167 434.869 244.167H418.096C416.364 244.167 414.95 242.753 414.95 241.023V224.248C414.95 222.521 416.364 221.105 418.096 221.105Z" fill="white"/>
<path fill-rule="evenodd" clip-rule="evenodd" d="M418.096 250.155H434.869C436.6 250.155 438.014 251.572 438.014 253.303V270.077C438.014 271.807 436.6 273.22 434.869 273.22H418.096C416.364 273.22 414.95 271.807 414.95 270.077V253.303C414.95 251.572 416.364 250.155 418.096 250.155Z" fill="white"/>
<path fill-rule="evenodd" clip-rule="evenodd" d="M418.096 279.209H434.869C436.6 279.209 438.014 280.623 438.014 282.352V299.127C438.014 300.857 436.6 302.272 434.869 302.272H418.096C416.364 302.272 414.95 300.857 414.95 299.127V282.352C414.95 280.623 416.364 279.209 418.096 279.209Z" fill="white"/>
<path fill-rule="evenodd" clip-rule="evenodd" d="M418.096 308.259H434.869C436.6 308.259 438.014 309.672 438.014 311.403V328.177C438.014 329.907 436.6 331.325 434.869 331.325H418.096C416.364 331.325 414.95 329.907 414.95 328.177V311.403C414.95 309.672 416.364 308.259 418.096 308.259Z" fill="white"/>
<path fill-rule="evenodd" clip-rule="evenodd" d="M419.952 235.192C419.426 234.647 419.443 233.776 419.99 233.251C420.536 232.723 421.406 232.741 421.931 233.287L424.411 235.867L430.892 226.461C431.323 225.837 432.178 225.681 432.802 226.112C433.426 226.543 433.583 227.4 433.152 228.023L425.746 238.771C425.687 238.859 425.619 238.944 425.539 239.023C424.994 239.549 424.123 239.531 423.598 238.985L419.952 235.192Z" fill="#523B5D"/>
<path fill-rule="evenodd" clip-rule="evenodd" d="M423.308 267.583C422.817 268.164 421.952 268.236 421.372 267.745C420.792 267.256 420.721 266.387 421.21 265.808L424.684 261.688L421.209 257.567C420.721 256.989 420.79 256.12 421.372 255.629C421.952 255.14 422.817 255.215 423.308 255.793L426.484 259.556L429.657 255.793C430.146 255.215 431.014 255.14 431.594 255.629C432.174 256.12 432.245 256.989 431.756 257.567L428.282 261.688L431.756 265.808C432.245 266.387 432.174 267.256 431.594 267.745C431.014 268.236 430.146 268.164 429.657 267.583L426.484 263.819L423.308 267.583Z" fill="#E83A5F"/>
<path fill-rule="evenodd" clip-rule="evenodd" d="M419.952 293.296C419.426 292.751 419.443 291.881 419.99 291.355C420.536 290.828 421.406 290.845 421.931 291.391L424.411 293.971L430.892 284.564C431.323 283.94 432.178 283.781 432.802 284.216C433.426 284.647 433.583 285.5 433.152 286.124L425.746 296.875C425.687 296.963 425.619 297.049 425.539 297.127C424.994 297.651 424.123 297.635 423.598 297.085L419.952 293.296Z" fill="#523B5D"/>
<path fill-rule="evenodd" clip-rule="evenodd" d="M454.773 358.121C455.842 359.443 466.554 365.372 466.554 365.372L462.591 421.427C462.591 421.427 462.483 427.359 455.735 427.359C448.989 427.359 444.811 427.359 444.811 427.359C444.811 427.359 440.634 427.359 433.887 427.359C427.139 427.359 427.031 421.427 427.031 421.427L423.067 365.372C423.067 365.372 433.781 359.443 434.849 358.121H454.773Z" fill="white"/>
<path fill-rule="evenodd" clip-rule="evenodd" d="M465.607 377.325H424.014C423.601 377.325 423.243 377.48 422.962 377.78C422.679 378.085 422.55 378.452 422.577 378.865L425.07 414.092C425.123 414.849 425.747 415.432 426.506 415.432H463.117C463.874 415.432 464.502 414.849 464.554 414.092L467.045 378.865C467.073 378.452 466.945 378.085 466.662 377.78C466.379 377.48 466.023 377.325 465.607 377.325Z" fill="#9F6343"/>
<path fill-rule="evenodd" clip-rule="evenodd" d="M459.896 354.328H429.727C426.062 354.328 423.064 357.324 423.064 360.992C423.064 364.66 426.062 367.659 429.727 367.659H459.896C463.562 367.659 466.559 364.66 466.559 360.992C466.559 357.324 463.562 354.328 459.896 354.328Z" fill="white"/>
<path fill-rule="evenodd" clip-rule="evenodd" d="M467.432 360.969H422.192C420.133 360.969 418.45 362.655 418.45 364.712C418.45 366.772 420.133 368.452 422.192 368.452H467.432C469.49 368.452 471.173 366.772 471.173 364.712C471.173 362.655 469.49 360.969 467.432 360.969Z" fill="#9F6343"/>
<path fill-rule="evenodd" clip-rule="evenodd" d="M444.811 410.38C452.522 410.38 458.813 404.088 458.813 396.379C458.813 388.664 452.522 382.377 444.811 382.377C437.099 382.377 430.809 388.664 430.809 396.379C430.809 404.088 437.099 410.38 444.811 410.38Z" fill="#412F25"/>
<path fill-rule="evenodd" clip-rule="evenodd" d="M444.813 408.703C451.601 408.703 457.137 403.163 457.137 396.379C457.137 389.589 451.601 384.051 444.813 384.051C438.023 384.051 432.487 389.589 432.487 396.379C432.487 403.163 438.023 408.703 444.813 408.703Z" fill="#FFFBFB"/>
<path fill-rule="evenodd" clip-rule="evenodd" d="M443.983 406.225V399.619C443.983 397.944 444.216 397.729 444.79 397.195C444.93 397.064 445.083 396.92 445.222 396.787C445.392 396.615 445.568 396.464 445.754 396.312C446.742 395.484 447.775 394.623 447.775 391.545V387.265C449.56 388.297 450.768 390.227 450.768 392.429V400.328C450.768 403.605 448.088 406.285 444.811 406.285C444.53 406.285 444.254 406.264 443.983 406.225ZM444.811 386.471C441.535 386.471 438.854 389.151 438.854 392.429V400.328C438.854 402.908 440.518 405.12 442.827 405.944V399.619C442.827 397.447 443.168 397.128 444.006 396.352C444.115 396.248 444.235 396.137 444.401 395.969C444.595 395.776 444.803 395.603 445.012 395.428C445.799 394.772 446.619 394.084 446.619 391.545V386.753C446.048 386.571 445.442 386.471 444.811 386.471Z" fill="#432D22"/>
<path fill-rule="evenodd" clip-rule="evenodd" d="M421.312 362.179C421.312 363.519 422.025 364.7 423.092 365.361C423.664 365.717 424.336 365.921 425.054 365.921H425.254H464.369H466.517H470.293C470.533 365.921 470.768 365.899 470.994 365.855C470.508 367.357 469.092 368.452 467.432 368.452H466.337H423.286H422.192C420.133 368.452 418.45 366.768 418.45 364.712C418.45 362.892 419.766 361.367 421.493 361.036C421.376 361.396 421.312 361.781 421.312 362.179Z" fill="#73422E"/>
<path fill-rule="evenodd" clip-rule="evenodd" d="M426.144 355.38C427.174 357.74 429.532 359.399 432.258 359.399H433.19H456.432H462.428C463.743 359.399 464.974 359.013 466.011 358.348C466.36 359.155 466.558 360.041 466.562 360.969H458.926H430.698H423.064C423.071 358.631 424.299 356.563 426.144 355.38Z" fill="#FADCD1"/>
<path fill-rule="evenodd" clip-rule="evenodd" d="M431.826 415.432L432.278 421.817C432.335 422.625 433.007 423.253 433.819 423.253H462.203C461.593 424.997 459.979 427.359 455.723 427.359C448.974 427.359 444.795 427.359 444.795 427.359C444.795 427.359 440.619 427.359 433.871 427.359C427.125 427.359 427.017 421.427 427.017 421.427L426.593 415.432H431.826ZM430.085 371.663C429.609 371.663 429.197 371.841 428.871 372.191C428.545 372.54 428.397 372.963 428.43 373.439L428.705 377.325H424.014C423.981 377.325 423.947 377.325 423.914 377.328L423.286 368.452H466.337L466.111 371.663H430.085Z" fill="#FADCD1"/>
<path fill-rule="evenodd" clip-rule="evenodd" d="M428.525 378.865L431.014 414.092C431.066 414.849 431.693 415.432 432.453 415.432H431.826H426.609H426.593H426.506C425.747 415.432 425.123 414.849 425.07 414.092L422.577 378.865C422.55 378.452 422.679 378.085 422.962 377.78C423.222 377.505 423.543 377.351 423.914 377.328C423.947 377.325 423.981 377.325 424.014 377.325H428.705H429.958C429.545 377.325 429.189 377.48 428.906 377.78C428.623 378.085 428.495 378.452 428.525 378.865Z" fill="#73422E"/>
<path fill-rule="evenodd" clip-rule="evenodd" d="M105.015 214.573H185.764C189.858 214.573 193.208 217.925 193.208 222.017V241.603V243.871V263.413C193.208 263.76 193.011 264.052 192.696 264.183C192.379 264.316 192.032 264.245 191.79 264.004L179.103 251.317H105.015C100.92 251.317 97.5684 247.968 97.5684 243.871V222.017C97.5684 217.921 100.919 214.573 105.015 214.573Z" fill="#B1CABF"/>
<path fill-rule="evenodd" clip-rule="evenodd" d="M127.547 399.14L131.427 403.999H149.065L152.945 399.14C166.881 361.549 113.61 361.549 127.547 399.14Z" fill="#9FC232"/>
<path fill-rule="evenodd" clip-rule="evenodd" d="M132.573 399.14L134.917 403.999H145.577L147.921 399.14C156.341 361.549 124.15 361.549 132.573 399.14Z" fill="#C4E454"/>
<path fill-rule="evenodd" clip-rule="evenodd" d="M155.37 396.019H125.122C124.074 396.019 123.22 396.872 123.22 397.919V406.56C123.22 407.611 124.074 408.464 125.122 408.464H155.37C156.42 408.464 157.274 407.611 157.274 406.56V397.919C157.274 396.872 156.42 396.019 155.37 396.019Z" fill="#9F6343"/>
<path fill-rule="evenodd" clip-rule="evenodd" d="M150.335 403.045H130.157L124.889 408.464L129.191 427.359H140.246H151.299L155.605 408.464L150.335 403.045Z" fill="#9F6343"/>
<path fill-rule="evenodd" clip-rule="evenodd" d="M124.889 408.464L125.773 412.192H154.719L155.605 408.464H124.889Z" fill="#73422E"/>
<path fill-rule="evenodd" clip-rule="evenodd" d="M110.555 287.081H112.537C113.022 287.081 113.419 287.479 113.419 287.965C113.419 288.447 113.022 288.844 112.537 288.844H110.555C110.069 288.844 109.674 288.447 109.674 287.965C109.674 287.479 110.069 287.081 110.555 287.081Z" fill="#E83A5F"/>
<path fill-rule="evenodd" clip-rule="evenodd" d="M108.67 300.731H97.5057C97.019 300.731 96.623 301.124 96.623 301.609C96.623 302.097 97.019 302.495 97.5057 302.495H108.67C109.155 302.495 109.551 302.097 109.551 301.609C109.551 301.124 109.155 300.731 108.67 300.731Z" fill="#E83A5F"/>
<path fill-rule="evenodd" clip-rule="evenodd" d="M118.408 307.045H127.76C128.245 307.045 128.642 307.441 128.642 307.925C128.642 308.411 128.245 308.808 127.76 308.808H118.408C117.922 308.808 117.526 308.411 117.526 307.925C117.526 307.441 117.922 307.045 118.408 307.045Z" fill="#E83A5F"/>
<path fill-rule="evenodd" clip-rule="evenodd" d="M125.05 318.935H127.76C128.245 318.935 128.642 319.331 128.642 319.815C128.642 320.3 128.245 320.697 127.76 320.697H125.05C124.566 320.697 124.169 320.3 124.169 319.815C124.169 319.331 124.566 318.935 125.05 318.935Z" fill="#E83A5F"/>
<path fill-rule="evenodd" clip-rule="evenodd" d="M75.0317 331.559H102.266C102.751 331.559 103.147 331.956 103.147 332.441C103.147 332.925 102.751 333.323 102.266 333.323H75.0317C74.5462 333.323 74.1494 332.925 74.1494 332.441C74.1494 331.956 74.5462 331.559 75.0317 331.559Z" fill="#E83A5F"/>
<path fill-rule="evenodd" clip-rule="evenodd" d="M108.67 337.877H97.5057C97.019 337.877 96.623 338.271 96.623 338.757C96.623 339.243 97.019 339.64 97.5057 339.64H108.67C109.155 339.64 109.551 339.243 109.551 338.757C109.551 338.271 109.155 337.877 108.67 337.877Z" fill="#E83A5F"/>
<path fill-rule="evenodd" clip-rule="evenodd" d="M118.408 344.191H127.76C128.245 344.191 128.642 344.588 128.642 345.071C128.642 345.556 128.245 345.953 127.76 345.953H118.408C117.922 345.953 117.526 345.556 117.526 345.071C117.526 344.588 117.922 344.191 118.408 344.191Z" fill="#E83A5F"/>
<path fill-rule="evenodd" clip-rule="evenodd" d="M125.05 356.08H127.76C128.245 356.08 128.642 356.477 128.642 356.96C128.642 357.447 128.245 357.844 127.76 357.844H125.05C124.566 357.844 124.169 357.447 124.169 356.96C124.169 356.477 124.566 356.08 125.05 356.08Z" fill="#E83A5F"/>
<path fill-rule="evenodd" clip-rule="evenodd" d="M75.0317 368.705H102.266C102.751 368.705 103.147 369.103 103.147 369.589C103.147 370.071 102.751 370.468 102.266 370.468H75.0317C74.5462 370.468 74.1494 370.071 74.1494 369.589C74.1494 369.103 74.5462 368.705 75.0317 368.705Z" fill="#E83A5F"/>
<path fill-rule="evenodd" clip-rule="evenodd" d="M148.854 287.081H163.183C163.669 287.081 164.065 287.479 164.065 287.965C164.065 288.447 163.669 288.844 163.183 288.844H148.854C148.37 288.844 147.973 288.447 147.973 287.965C147.973 287.479 148.37 287.081 148.854 287.081Z" fill="#523B5D"/>
<path fill-rule="evenodd" clip-rule="evenodd" d="M95.0877 293.024H123.169C123.654 293.024 124.05 293.423 124.05 293.908C124.05 294.393 123.654 294.788 123.169 294.788H95.0877C94.6024 294.788 94.2051 294.393 94.2051 293.908C94.2051 293.423 94.6024 293.024 95.0877 293.024Z" fill="#523B5D"/>
<path fill-rule="evenodd" clip-rule="evenodd" d="M128.003 293.024H126.864C126.378 293.024 125.98 293.423 125.98 293.908C125.98 294.393 126.378 294.788 126.864 294.788H128.003C128.487 294.788 128.884 294.393 128.884 293.908C128.884 293.423 128.487 293.024 128.003 293.024Z" fill="#523B5D"/>
<path fill-rule="evenodd" clip-rule="evenodd" d="M163.182 293.024H131.577C131.091 293.024 130.695 293.423 130.695 293.908C130.695 294.393 131.091 294.788 131.577 294.788H163.182C163.669 294.788 164.065 294.393 164.065 293.908C164.065 293.423 163.669 293.024 163.182 293.024Z" fill="#523B5D"/>
<path fill-rule="evenodd" clip-rule="evenodd" d="M117.562 287.081H144.334C144.821 287.081 145.217 287.479 145.217 287.965C145.217 288.447 144.821 288.844 144.334 288.844H117.562C117.077 288.844 116.68 288.447 116.68 287.965C116.68 287.479 117.077 287.081 117.562 287.081Z" fill="#523B5D"/>
<path fill-rule="evenodd" clip-rule="evenodd" d="M52.9204 300.731H93.2042C93.6895 300.731 94.0869 301.124 94.0869 301.609C94.0869 302.097 93.6895 302.495 93.2042 302.495H52.9204C52.436 302.495 52.0381 302.097 52.0381 301.609C52.0381 301.124 52.436 300.731 52.9204 300.731Z" fill="#523B5D"/>
<path fill-rule="evenodd" clip-rule="evenodd" d="M112.488 300.731H152.772C153.257 300.731 153.653 301.124 153.653 301.609C153.653 302.097 153.257 302.495 152.772 302.495H112.488C112.001 302.495 111.606 302.097 111.606 301.609C111.606 301.124 112.001 300.731 112.488 300.731Z" fill="#523B5D"/>
<path fill-rule="evenodd" clip-rule="evenodd" d="M133.147 307.045H147.695C148.182 307.045 148.576 307.441 148.576 307.925C148.576 308.411 148.182 308.808 147.695 308.808H133.147C132.662 308.808 132.266 308.411 132.266 307.925C132.266 307.441 132.662 307.045 133.147 307.045Z" fill="#523B5D"/>
<path fill-rule="evenodd" clip-rule="evenodd" d="M50.0221 307.045H113.625C114.11 307.045 114.505 307.441 114.505 307.925C114.505 308.411 114.11 308.808 113.625 308.808H50.0221C49.5377 308.808 49.1396 308.411 49.1396 307.925C49.1396 307.441 49.5377 307.045 50.0221 307.045Z" fill="#523B5D"/>
<path fill-rule="evenodd" clip-rule="evenodd" d="M84.0948 313.061H147.696C148.182 313.061 148.577 313.459 148.577 313.941C148.577 314.428 148.182 314.825 147.696 314.825H84.0948C83.6082 314.825 83.2129 314.428 83.2129 313.941C83.2129 313.459 83.6082 313.061 84.0948 313.061Z" fill="#523B5D"/>
<path fill-rule="evenodd" clip-rule="evenodd" d="M133.147 318.935H147.695C148.182 318.935 148.576 319.331 148.576 319.815C148.576 320.3 148.182 320.697 147.695 320.697H133.147C132.662 320.697 132.266 320.3 132.266 319.815C132.266 319.331 132.662 318.935 133.147 318.935Z" fill="#523B5D"/>
<path fill-rule="evenodd" clip-rule="evenodd" d="M75.0317 318.935H119.907C120.393 318.935 120.789 319.331 120.789 319.815C120.789 320.3 120.393 320.697 119.907 320.697H75.0317C74.5462 320.697 74.1494 320.3 74.1494 319.815C74.1494 319.331 74.5462 318.935 75.0317 318.935Z" fill="#523B5D"/>
<path fill-rule="evenodd" clip-rule="evenodd" d="M84.0948 325.245H154.461C154.946 325.245 155.342 325.643 155.342 326.128C155.342 326.615 154.946 327.008 154.461 327.008H84.0948C83.6082 327.008 83.2129 326.615 83.2129 326.128C83.2129 325.643 83.6082 325.245 84.0948 325.245Z" fill="#523B5D"/>
<path fill-rule="evenodd" clip-rule="evenodd" d="M108.62 331.559H154.461C154.946 331.559 155.342 331.956 155.342 332.441C155.342 332.925 154.946 333.323 154.461 333.323H108.62C108.136 333.323 107.738 332.925 107.738 332.441C107.738 331.956 108.136 331.559 108.62 331.559Z" fill="#523B5D"/>
<path fill-rule="evenodd" clip-rule="evenodd" d="M52.9204 337.877H93.2042C93.6895 337.877 94.0869 338.271 94.0869 338.757C94.0869 339.243 93.6895 339.64 93.2042 339.64H52.9204C52.436 339.64 52.0381 339.243 52.0381 338.757C52.0381 338.271 52.436 337.877 52.9204 337.877Z" fill="#523B5D"/>
<path fill-rule="evenodd" clip-rule="evenodd" d="M112.488 337.877H152.772C153.257 337.877 153.653 338.271 153.653 338.757C153.653 339.243 153.257 339.64 152.772 339.64H112.488C112.001 339.64 111.606 339.243 111.606 338.757C111.606 338.271 112.001 337.877 112.488 337.877Z" fill="#523B5D"/>
<path fill-rule="evenodd" clip-rule="evenodd" d="M133.147 344.191H147.695C148.182 344.191 148.576 344.588 148.576 345.071C148.576 345.556 148.182 345.953 147.695 345.953H133.147C132.662 345.953 132.266 345.556 132.266 345.071C132.266 344.588 132.662 344.191 133.147 344.191Z" fill="#523B5D"/>
<path fill-rule="evenodd" clip-rule="evenodd" d="M50.0221 344.191H113.625C114.11 344.191 114.505 344.588 114.505 345.071C114.505 345.556 114.11 345.953 113.625 345.953H50.0221C49.5377 345.953 49.1396 345.556 49.1396 345.071C49.1396 344.588 49.5377 344.191 50.0221 344.191Z" fill="#523B5D"/>
<path fill-rule="evenodd" clip-rule="evenodd" d="M84.0948 350.208H147.696C148.182 350.208 148.577 350.606 148.577 351.088C148.577 351.575 148.182 351.972 147.696 351.972H84.0948C83.6082 351.972 83.2129 351.575 83.2129 351.088C83.2129 350.606 83.6082 350.208 84.0948 350.208Z" fill="#523B5D"/>
<path fill-rule="evenodd" clip-rule="evenodd" d="M133.147 356.08H147.695C148.182 356.08 148.576 356.477 148.576 356.96C148.576 357.447 148.182 357.844 147.695 357.844H133.147C132.662 357.844 132.266 357.447 132.266 356.96C132.266 356.477 132.662 356.08 133.147 356.08Z" fill="#523B5D"/>
<path fill-rule="evenodd" clip-rule="evenodd" d="M75.0317 356.08H119.907C120.393 356.08 120.789 356.477 120.789 356.96C120.789 357.447 120.393 357.844 119.907 357.844H75.0317C74.5462 357.844 74.1494 357.447 74.1494 356.96C74.1494 356.477 74.5462 356.08 75.0317 356.08Z" fill="#523B5D"/>
<path fill-rule="evenodd" clip-rule="evenodd" d="M84.0948 362.391H154.461C154.946 362.391 155.342 362.788 155.342 363.273C155.342 363.761 154.946 364.155 154.461 364.155H84.0948C83.6082 364.155 83.2129 363.761 83.2129 363.273C83.2129 362.788 83.6082 362.391 84.0948 362.391Z" fill="#523B5D"/>
<path fill-rule="evenodd" clip-rule="evenodd" d="M108.62 368.705H154.461C154.946 368.705 155.342 369.103 155.342 369.589C155.342 370.071 154.946 370.468 154.461 370.468H108.62C108.136 370.468 107.738 370.071 107.738 369.589C107.738 369.103 108.136 368.705 108.62 368.705Z" fill="#523B5D"/>
<path fill-rule="evenodd" clip-rule="evenodd" d="M335.619 48.0948H390.738C394.74 48.0948 398.016 51.3708 398.016 55.3748V78.7415V80.9615V100.071C398.016 100.407 397.826 100.692 397.515 100.823C397.206 100.951 396.868 100.884 396.63 100.644L384.226 88.2402H335.619C331.615 88.2402 328.339 84.9642 328.339 80.9615V55.3748C328.339 51.3708 331.615 48.0948 335.619 48.0948Z" fill="#B1CABF"/>
<path fill-rule="evenodd" clip-rule="evenodd" d="M382.876 75.2056V60.9029H385.906V72.7016H391.709V75.2056H382.876ZM370.046 75.2056L366.6 63.9842H366.512C366.636 66.2669 366.7 67.7909 366.7 68.5522V75.2056H363.988V60.9029H368.12L371.501 71.8402H371.561L375.153 60.9029H379.28V75.2056H376.453V68.4349C376.453 68.1176 376.457 67.7482 376.469 67.3282C376.478 66.9122 376.522 65.8029 376.6 64.0042H376.512L372.822 75.2056H370.046ZM357.901 75.2056H354.87V63.4269H350.986V60.9029H361.785V63.4269H357.901V75.2056ZM348.774 75.2056H345.752V69.0362H340.089V75.2056H337.06V60.9029H340.089V66.5122H345.752V60.9029H348.774V75.2056Z" fill="#FB9301"/>
<path fill-rule="evenodd" clip-rule="evenodd" d="M103.156 156.547C104.942 156.547 106.399 155.089 106.399 153.303C106.399 151.517 104.942 150.06 103.156 150.06C101.371 150.06 99.915 151.517 99.915 153.303C99.915 155.089 101.371 156.547 103.156 156.547Z" fill="white"/>
<path fill-rule="evenodd" clip-rule="evenodd" d="M386.339 241.119C388.126 241.119 389.582 239.661 389.582 237.876C389.582 236.089 388.126 234.635 386.339 234.635C384.554 234.635 383.097 236.089 383.097 237.876C383.097 239.661 384.554 241.119 386.339 241.119Z" fill="white"/>
<path fill-rule="evenodd" clip-rule="evenodd" d="M461.41 106.18C463.198 106.18 464.654 104.723 464.654 102.939C464.654 101.152 463.198 99.6948 461.41 99.6948C459.625 99.6948 458.169 101.152 458.169 102.939C458.169 104.723 459.625 106.18 461.41 106.18Z" fill="white"/>
<path fill-rule="evenodd" clip-rule="evenodd" d="M517.477 407.417C519.265 407.417 520.722 405.963 520.722 404.173C520.722 402.388 519.265 400.933 517.477 400.933C515.692 400.933 514.234 402.388 514.234 404.173C514.234 405.963 515.692 407.417 517.477 407.417Z" fill="white"/>
<path fill-rule="evenodd" clip-rule="evenodd" d="M74.6491 408.368C76.4344 408.368 77.8917 406.914 77.8917 405.124C77.8917 403.338 76.4344 401.884 74.6491 401.884C72.8636 401.884 71.4062 403.338 71.4062 405.124C71.4062 406.914 72.8636 408.368 74.6491 408.368Z" fill="white"/>
<path fill-rule="evenodd" clip-rule="evenodd" d="M239.997 32.1533C240.81 32.1533 241.473 31.4933 241.473 30.68C241.473 29.8693 240.81 29.2067 239.997 29.2067C239.186 29.2067 238.523 29.8693 238.523 30.68C238.523 31.4933 239.186 32.1533 239.997 32.1533Z" fill="white"/>
<path fill-rule="evenodd" clip-rule="evenodd" d="M139.267 119.579C140.081 119.579 140.743 118.919 140.743 118.105C140.743 117.295 140.081 116.632 139.267 116.632C138.457 116.632 137.794 117.295 137.794 118.105C137.794 118.919 138.457 119.579 139.267 119.579Z" fill="white"/>
<path fill-rule="evenodd" clip-rule="evenodd" d="M379.17 126.892H469.816C472.402 126.892 474.518 129.008 474.518 131.593V200.753C474.518 203.339 472.402 205.452 469.816 205.452H379.17C376.586 205.452 374.47 203.339 374.47 200.753V131.593C374.47 129.008 376.586 126.892 379.17 126.892Z" fill="#B1CABF"/>
<path fill-rule="evenodd" clip-rule="evenodd" d="M376.735 124.389H467.383C469.968 124.389 472.083 126.504 472.083 129.089V198.249C472.083 200.835 469.968 202.951 467.383 202.951H376.735C374.151 202.951 372.035 200.835 372.035 198.249V129.089C372.035 126.504 374.151 124.389 376.735 124.389Z" fill="white"/>
<path fill-rule="evenodd" clip-rule="evenodd" d="M376.735 124.389H467.383C469.968 124.389 472.083 126.504 472.083 129.089V135.579C472.083 136.303 471.491 136.896 470.767 136.896H373.35C372.626 136.896 372.035 136.303 372.035 135.579V129.089C372.035 126.504 374.151 124.389 376.735 124.389Z" fill="#523B5D"/>
<path fill-rule="evenodd" clip-rule="evenodd" d="M379.641 142.136H405.052C405.588 142.136 406.028 142.575 406.028 143.113C406.028 143.652 405.588 144.089 405.052 144.089H379.641C379.105 144.089 378.665 143.652 378.665 143.113C378.665 142.575 379.105 142.136 379.641 142.136Z" fill="#523B5D"/>
<path fill-rule="evenodd" clip-rule="evenodd" d="M405.051 146.444H393.699C393.165 146.444 392.725 146.884 392.725 147.421C392.725 147.957 393.165 148.397 393.699 148.397H405.051C405.587 148.397 406.027 147.957 406.027 147.421C406.027 146.884 405.587 146.444 405.051 146.444Z" fill="#523B5D"/>
<path fill-rule="evenodd" clip-rule="evenodd" d="M388.747 146.444H389.648C390.186 146.444 390.624 146.884 390.624 147.421C390.624 147.957 390.186 148.397 389.648 148.397H388.747C388.21 148.397 387.772 147.957 387.772 147.421C387.772 146.884 388.21 146.444 388.747 146.444Z" fill="#523B5D"/>
<path fill-rule="evenodd" clip-rule="evenodd" d="M379.641 146.444H385.328C385.864 146.444 386.304 146.884 386.304 147.421C386.304 147.957 385.864 148.397 385.328 148.397H379.641C379.105 148.397 378.665 147.957 378.665 147.421C378.665 146.884 379.105 146.444 379.641 146.444Z" fill="#523B5D"/>
<path fill-rule="evenodd" clip-rule="evenodd" d="M379.641 151.553H405.052C405.588 151.553 406.028 151.995 406.028 152.531V152.532C406.028 153.069 405.588 153.508 405.052 153.508H379.641C379.105 153.508 378.665 153.069 378.665 152.532V152.531C378.665 151.995 379.105 151.553 379.641 151.553Z" fill="#523B5D"/>
<path fill-rule="evenodd" clip-rule="evenodd" d="M379.641 155.864H390.993C391.529 155.864 391.969 156.301 391.969 156.84C391.969 157.376 391.529 157.816 390.993 157.816H379.641C379.105 157.816 378.665 157.376 378.665 156.84C378.665 156.301 379.105 155.864 379.641 155.864Z" fill="#523B5D"/>
<path fill-rule="evenodd" clip-rule="evenodd" d="M395.945 155.864H395.043C394.506 155.864 394.067 156.301 394.067 156.84C394.067 157.376 394.506 157.816 395.043 157.816H395.945C396.482 157.816 396.921 157.376 396.921 156.84C396.921 156.301 396.482 155.864 395.945 155.864Z" fill="#523B5D"/>
<path fill-rule="evenodd" clip-rule="evenodd" d="M405.051 155.864H399.366C398.828 155.864 398.39 156.301 398.39 156.84C398.39 157.376 398.828 157.816 399.366 157.816H405.051C405.587 157.816 406.027 157.376 406.027 156.84C406.027 156.301 405.587 155.864 405.051 155.864Z" fill="#523B5D"/>
<path fill-rule="evenodd" clip-rule="evenodd" d="M379.641 160.973H405.052C405.588 160.973 406.028 161.413 406.028 161.949V161.952C406.028 162.488 405.588 162.925 405.052 162.925H379.641C379.105 162.925 378.665 162.488 378.665 161.952V161.949C378.665 161.413 379.105 160.973 379.641 160.973Z" fill="#523B5D"/>
<path fill-rule="evenodd" clip-rule="evenodd" d="M405.051 165.281H393.699C393.165 165.281 392.725 165.721 392.725 166.257C392.725 166.796 393.165 167.233 393.699 167.233H405.051C405.587 167.233 406.027 166.796 406.027 166.257C406.027 165.721 405.587 165.281 405.051 165.281Z" fill="#523B5D"/>
<path fill-rule="evenodd" clip-rule="evenodd" d="M388.747 165.281H389.648C390.186 165.281 390.624 165.721 390.624 166.257C390.624 166.796 390.186 167.233 389.648 167.233H388.747C388.21 167.233 387.772 166.796 387.772 166.257C387.772 165.721 388.21 165.281 388.747 165.281Z" fill="#523B5D"/>
<path fill-rule="evenodd" clip-rule="evenodd" d="M379.641 165.281H385.328C385.864 165.281 386.304 165.721 386.304 166.257C386.304 166.796 385.864 167.233 385.328 167.233H379.641C379.105 167.233 378.665 166.796 378.665 166.257C378.665 165.721 379.105 165.281 379.641 165.281Z" fill="#523B5D"/>
<path fill-rule="evenodd" clip-rule="evenodd" d="M379.641 170.392H405.052C405.588 170.392 406.028 170.831 406.028 171.369C406.028 171.908 405.588 172.345 405.052 172.345H379.641C379.105 172.345 378.665 171.908 378.665 171.369C378.665 170.831 379.105 170.392 379.641 170.392Z" fill="#523B5D"/>
<path fill-rule="evenodd" clip-rule="evenodd" d="M379.641 174.7H390.993C391.529 174.7 391.969 175.139 391.969 175.677C391.969 176.215 391.529 176.653 390.993 176.653H379.641C379.105 176.653 378.665 176.215 378.665 175.677C378.665 175.139 379.105 174.7 379.641 174.7Z" fill="#523B5D"/>
<path fill-rule="evenodd" clip-rule="evenodd" d="M404.15 174.7H405.051C405.587 174.7 406.027 175.139 406.027 175.677C406.027 176.215 405.587 176.653 405.051 176.653H404.15C403.614 176.653 403.174 176.215 403.174 175.677C403.174 175.139 403.614 174.7 404.15 174.7Z" fill="#523B5D"/>
<path fill-rule="evenodd" clip-rule="evenodd" d="M395.042 174.7H400.73C401.264 174.7 401.704 175.139 401.704 175.677C401.704 176.215 401.264 176.653 400.73 176.653H395.042C394.506 176.653 394.064 176.215 394.064 175.677C394.064 175.139 394.506 174.7 395.042 174.7Z" fill="#523B5D"/>
<path fill-rule="evenodd" clip-rule="evenodd" d="M379.641 179.809H405.052C405.588 179.809 406.028 180.249 406.028 180.787V180.788C406.028 181.325 405.588 181.763 405.052 181.763H379.641C379.105 181.763 378.665 181.325 378.665 180.788V180.787C378.665 180.249 379.105 179.809 379.641 179.809Z" fill="#523B5D"/>
<path fill-rule="evenodd" clip-rule="evenodd" d="M395.944 184.12H384.592C384.056 184.12 383.616 184.557 383.616 185.095V185.096C383.616 185.632 384.056 186.072 384.592 186.072H395.944C396.482 186.072 396.92 185.632 396.92 185.096V185.095C396.92 184.557 396.482 184.12 395.944 184.12Z" fill="#523B5D"/>
<path fill-rule="evenodd" clip-rule="evenodd" d="M379.641 184.12H380.544C381.08 184.12 381.52 184.557 381.52 185.095V185.096C381.52 185.632 381.08 186.072 380.544 186.072H379.641C379.105 186.072 378.665 185.632 378.665 185.096V185.095C378.665 184.557 379.105 184.12 379.641 184.12Z" fill="#523B5D"/>
<path fill-rule="evenodd" clip-rule="evenodd" d="M405.051 184.12H399.366C398.828 184.12 398.39 184.557 398.39 185.095V185.096C398.39 185.632 398.828 186.072 399.366 186.072H405.051C405.587 186.072 406.027 185.632 406.027 185.096V185.095C406.027 184.557 405.587 184.12 405.051 184.12Z" fill="#523B5D"/>
<path fill-rule="evenodd" clip-rule="evenodd" d="M379.641 189.229H405.052C405.588 189.229 406.028 189.669 406.028 190.205V190.208C406.028 190.744 405.588 191.181 405.052 191.181H379.641C379.105 191.181 378.665 190.744 378.665 190.208V190.205C378.665 189.669 379.105 189.229 379.641 189.229Z" fill="#523B5D"/>
<path fill-rule="evenodd" clip-rule="evenodd" d="M379.641 193.537H390.993C391.529 193.537 391.969 193.977 391.969 194.513C391.969 195.051 391.529 195.489 390.993 195.489H379.641C379.105 195.489 378.665 195.051 378.665 194.513C378.665 193.977 379.105 193.537 379.641 193.537Z" fill="#523B5D"/>
<path fill-rule="evenodd" clip-rule="evenodd" d="M395.945 193.537H395.043C394.506 193.537 394.067 193.977 394.067 194.513C394.067 195.051 394.506 195.489 395.043 195.489H395.945C396.482 195.489 396.921 195.051 396.921 194.513C396.921 193.977 396.482 193.537 395.945 193.537Z" fill="#523B5D"/>
<path fill-rule="evenodd" clip-rule="evenodd" d="M405.051 193.537H399.366C398.828 193.537 398.39 193.977 398.39 194.513C398.39 195.051 398.828 195.489 399.366 195.489H405.051C405.587 195.489 406.027 195.051 406.027 194.513C406.027 193.977 405.587 193.537 405.051 193.537Z" fill="#523B5D"/>
<path fill-rule="evenodd" clip-rule="evenodd" d="M421.312 142.136H464.301C464.838 142.136 465.278 142.575 465.278 143.113C465.278 143.652 464.838 144.089 464.301 144.089H421.312C420.774 144.089 420.337 143.652 420.337 143.113C420.337 142.575 420.774 142.136 421.312 142.136Z" fill="#E83A5F"/>
<path fill-rule="evenodd" clip-rule="evenodd" d="M464.3 146.444H444.402C443.866 146.444 443.426 146.884 443.426 147.421C443.426 147.957 443.866 148.397 444.402 148.397H464.3C464.838 148.397 465.275 147.957 465.275 147.421C465.275 146.884 464.838 146.444 464.3 146.444Z" fill="#E83A5F"/>
<path fill-rule="evenodd" clip-rule="evenodd" d="M436.27 146.444H439.004C439.542 146.444 439.98 146.884 439.98 147.421C439.98 147.957 439.542 148.397 439.004 148.397H436.27C435.733 148.397 435.293 147.957 435.293 147.421C435.293 146.884 435.733 146.444 436.27 146.444Z" fill="#E83A5F"/>
<path fill-rule="evenodd" clip-rule="evenodd" d="M421.312 146.444H431.904C432.441 146.444 432.881 146.884 432.881 147.421C432.881 147.957 432.441 148.397 431.904 148.397H421.312C420.774 148.397 420.337 147.957 420.337 147.421C420.337 146.884 420.774 146.444 421.312 146.444Z" fill="#E83A5F"/>
<path fill-rule="evenodd" clip-rule="evenodd" d="M421.312 151.553H464.301C464.838 151.553 465.278 151.995 465.278 152.531V152.532C465.278 153.069 464.838 153.508 464.301 153.508H421.312C420.774 153.508 420.337 153.069 420.337 152.532V152.531C420.337 151.995 420.774 151.553 421.312 151.553Z" fill="#E83A5F"/>
<path fill-rule="evenodd" clip-rule="evenodd" d="M421.312 155.864H441.209C441.746 155.864 442.185 156.301 442.185 156.84C442.185 157.376 441.746 157.816 441.209 157.816H421.312C420.774 157.816 420.337 157.376 420.337 156.84C420.337 156.301 420.774 155.864 421.312 155.864Z" fill="#E83A5F"/>
<path fill-rule="evenodd" clip-rule="evenodd" d="M449.342 155.864H446.607C446.07 155.864 445.631 156.301 445.631 156.84C445.631 157.376 446.07 157.816 446.607 157.816H449.342C449.879 157.816 450.318 157.376 450.318 156.84C450.318 156.301 449.879 155.864 449.342 155.864Z" fill="#E83A5F"/>
<path fill-rule="evenodd" clip-rule="evenodd" d="M464.301 155.864H453.707C453.171 155.864 452.731 156.301 452.731 156.84C452.731 157.376 453.171 157.816 453.707 157.816H464.301C464.838 157.816 465.278 157.376 465.278 156.84C465.278 156.301 464.838 155.864 464.301 155.864Z" fill="#E83A5F"/>
<path fill-rule="evenodd" clip-rule="evenodd" d="M421.312 160.973H464.301C464.838 160.973 465.278 161.413 465.278 161.949V161.952C465.278 162.488 464.838 162.925 464.301 162.925H421.312C420.774 162.925 420.337 162.488 420.337 161.952V161.949C420.337 161.413 420.774 160.973 421.312 160.973Z" fill="#E83A5F"/>
<path fill-rule="evenodd" clip-rule="evenodd" d="M464.3 165.281H444.402C443.866 165.281 443.426 165.721 443.426 166.257C443.426 166.796 443.866 167.233 444.402 167.233H464.3C464.838 167.233 465.275 166.796 465.275 166.257C465.275 165.721 464.838 165.281 464.3 165.281Z" fill="#E83A5F"/>
<path fill-rule="evenodd" clip-rule="evenodd" d="M436.27 165.281H439.004C439.542 165.281 439.98 165.721 439.98 166.257C439.98 166.796 439.542 167.233 439.004 167.233H436.27C435.733 167.233 435.293 166.796 435.293 166.257C435.293 165.721 435.733 165.281 436.27 165.281Z" fill="#E83A5F"/>
<path fill-rule="evenodd" clip-rule="evenodd" d="M421.312 165.281H431.904C432.441 165.281 432.881 165.721 432.881 166.257C432.881 166.796 432.441 167.233 431.904 167.233H421.312C420.774 167.233 420.337 166.796 420.337 166.257C420.337 165.721 420.774 165.281 421.312 165.281Z" fill="#E83A5F"/>
<path fill-rule="evenodd" clip-rule="evenodd" d="M421.312 170.392H464.301C464.838 170.392 465.278 170.831 465.278 171.369C465.278 171.908 464.838 172.345 464.301 172.345H421.312C420.774 172.345 420.337 171.908 420.337 171.369C420.337 170.831 420.774 170.392 421.312 170.392Z" fill="#E83A5F"/>
<path fill-rule="evenodd" clip-rule="evenodd" d="M421.312 174.7H441.209C441.746 174.7 442.185 175.139 442.185 175.677C442.185 176.215 441.746 176.653 441.209 176.653H421.312C420.774 176.653 420.337 176.215 420.337 175.677C420.337 175.139 420.774 174.7 421.312 174.7Z" fill="#E83A5F"/>
<path fill-rule="evenodd" clip-rule="evenodd" d="M461.565 174.7H464.301C464.838 174.7 465.278 175.139 465.278 175.677C465.278 176.215 464.838 176.653 464.301 176.653H461.565C461.029 176.653 460.589 176.215 460.589 175.677C460.589 175.139 461.029 174.7 461.565 174.7Z" fill="#E83A5F"/>
<path fill-rule="evenodd" clip-rule="evenodd" d="M446.607 174.7H457.199C457.738 174.7 458.175 175.139 458.175 175.677C458.175 176.215 457.738 176.653 457.199 176.653H446.607C446.07 176.653 445.631 176.215 445.631 175.677C445.631 175.139 446.07 174.7 446.607 174.7Z" fill="#E83A5F"/>
<path fill-rule="evenodd" clip-rule="evenodd" d="M421.312 179.809H464.301C464.838 179.809 465.278 180.249 465.278 180.787V180.788C465.278 181.325 464.838 181.763 464.301 181.763H421.312C420.774 181.763 420.337 181.325 420.337 180.788V180.787C420.337 180.249 420.774 179.809 421.312 179.809Z" fill="#E83A5F"/>
<path fill-rule="evenodd" clip-rule="evenodd" d="M449.342 184.12H429.445C428.909 184.12 428.469 184.557 428.469 185.095V185.096C428.469 185.632 428.909 186.072 429.445 186.072H449.342C449.879 186.072 450.318 185.632 450.318 185.096V185.095C450.318 184.557 449.879 184.12 449.342 184.12Z" fill="#E83A5F"/>
<path fill-rule="evenodd" clip-rule="evenodd" d="M421.312 184.12H424.048C424.584 184.12 425.024 184.557 425.024 185.095V185.096C425.024 185.632 424.584 186.072 424.048 186.072H421.312C420.774 186.072 420.337 185.632 420.337 185.096V185.095C420.337 184.557 420.774 184.12 421.312 184.12Z" fill="#E83A5F"/>
<path fill-rule="evenodd" clip-rule="evenodd" d="M464.301 184.12H453.707C453.171 184.12 452.731 184.557 452.731 185.095V185.096C452.731 185.632 453.171 186.072 453.707 186.072H464.301C464.838 186.072 465.278 185.632 465.278 185.096V185.095C465.278 184.557 464.838 184.12 464.301 184.12Z" fill="#E83A5F"/>
<path fill-rule="evenodd" clip-rule="evenodd" d="M421.312 189.229H464.301C464.838 189.229 465.278 189.669 465.278 190.205V190.208C465.278 190.744 464.838 191.181 464.301 191.181H421.312C420.774 191.181 420.337 190.744 420.337 190.208V190.205C420.337 189.669 420.774 189.229 421.312 189.229Z" fill="#E83A5F"/>
<path fill-rule="evenodd" clip-rule="evenodd" d="M421.312 193.537H441.209C441.746 193.537 442.185 193.977 442.185 194.513C442.185 195.051 441.746 195.489 441.209 195.489H421.312C420.774 195.489 420.337 195.051 420.337 194.513C420.337 193.977 420.774 193.537 421.312 193.537Z" fill="#E83A5F"/>
<path fill-rule="evenodd" clip-rule="evenodd" d="M449.342 193.537H446.607C446.07 193.537 445.631 193.977 445.631 194.513C445.631 195.051 446.07 195.489 446.607 195.489H449.342C449.879 195.489 450.318 195.051 450.318 194.513C450.318 193.977 449.879 193.537 449.342 193.537Z" fill="#E83A5F"/>
<path fill-rule="evenodd" clip-rule="evenodd" d="M464.301 193.537H453.707C453.171 193.537 452.731 193.977 452.731 194.513C452.731 195.051 453.171 195.489 453.707 195.489H464.301C464.838 195.489 465.278 195.051 465.278 194.513C465.278 193.977 464.838 193.537 464.301 193.537Z" fill="#E83A5F"/>
<path fill-rule="evenodd" clip-rule="evenodd" d="M447.96 132.897C449.202 132.897 450.215 131.884 450.215 130.64C450.215 129.399 449.202 128.384 447.96 128.384C446.717 128.384 445.702 129.399 445.702 130.64C445.702 131.884 446.717 132.897 447.96 132.897Z" fill="white"/>
<path fill-rule="evenodd" clip-rule="evenodd" d="M456.097 132.897C457.34 132.897 458.354 131.884 458.354 130.64C458.354 129.399 457.34 128.384 456.097 128.384C454.853 128.384 453.841 129.399 453.841 130.64C453.841 131.884 454.853 132.897 456.097 132.897Z" fill="white"/>
<path fill-rule="evenodd" clip-rule="evenodd" d="M464.233 132.897C465.477 132.897 466.491 131.884 466.491 130.64C466.491 129.399 465.477 128.384 464.233 128.384C462.99 128.384 461.977 129.399 461.977 130.64C461.977 131.884 462.99 132.897 464.233 132.897Z" fill="white"/>
<path fill-rule="evenodd" clip-rule="evenodd" d="M368.284 112.927C369.096 112.927 369.759 112.267 369.759 111.453C369.759 110.643 369.096 109.98 368.284 109.98C367.472 109.98 366.81 110.643 366.81 111.453C366.81 112.267 367.472 112.927 368.284 112.927Z" fill="white"/>
<path fill-rule="evenodd" clip-rule="evenodd" d="M199.564 193.177C200.374 193.177 201.037 192.516 201.037 191.704C201.037 190.892 200.374 190.229 199.564 190.229C198.752 190.229 198.089 190.892 198.089 191.704C198.089 192.516 198.752 193.177 199.564 193.177Z" fill="white"/>
<path fill-rule="evenodd" clip-rule="evenodd" d="M389.715 261.596C390.526 261.596 391.189 260.935 391.189 260.121C391.189 259.312 390.526 258.648 389.715 258.648C388.902 258.648 388.239 259.312 388.239 260.121C388.239 260.935 388.902 261.596 389.715 261.596Z" fill="white"/>
<path fill-rule="evenodd" clip-rule="evenodd" d="M493.295 367.079C494.106 367.079 494.769 366.415 494.769 365.603C494.769 364.792 494.106 364.132 493.295 364.132C492.482 364.132 491.819 364.792 491.819 365.603C491.819 366.415 492.482 367.079 493.295 367.079Z" fill="white"/>
<path fill-rule="evenodd" clip-rule="evenodd" d="M102.732 387.985C103.544 387.985 104.206 387.321 104.206 386.512C104.206 385.699 103.544 385.039 102.732 385.039C101.92 385.039 101.257 385.699 101.257 386.512C101.257 387.321 101.92 387.985 102.732 387.985Z" fill="white"/>
<path fill-rule="evenodd" clip-rule="evenodd" d="M225.624 256.087C225.624 256.087 219.002 259.201 211.626 267.82C206.365 273.971 184.526 332.091 171.356 368.723C168.098 377.788 155.342 409.4 180.709 427.359L186.172 432.25C194.577 414.812 215.592 368.435 215.592 368.435L225.624 256.087Z" fill="#FB9301"/>
<path fill-rule="evenodd" clip-rule="evenodd" d="M166.084 387.184C165.71 402.113 178.049 414.956 192.576 418.664C190.109 423.969 187.88 428.707 186.172 432.25L180.709 427.359C165.12 416.32 163.93 400.131 166.084 387.184ZM225.624 256.087C225.624 256.087 219.002 259.201 211.626 267.82C210.786 268.804 209.524 271.116 207.94 274.445C209.733 283.529 209.449 295.949 204.609 312.803C189.929 363.909 196.68 391.619 203.346 394.529L203.644 394.656C210.121 380.513 215.592 368.435 215.592 368.435L225.624 256.087Z" fill="#FB9301"/>
<path fill-rule="evenodd" clip-rule="evenodd" d="M350.345 163.046C350.345 163.046 352.079 194.002 363.223 213.878C363.223 213.878 366.833 218.622 363.106 223.002C359.379 227.382 335.623 246.799 294.277 252.456C252.927 258.116 212.578 224.479 211.519 220.07C210.461 215.662 224.183 184.139 223.107 157.328L350.345 163.046Z" fill="#412F25"/>
<path fill-rule="evenodd" clip-rule="evenodd" d="M350.345 163.043C350.345 163.043 351.294 179.953 356.286 196.804C349.231 202.623 334.473 217.665 336.306 240.443C325.406 245.444 311.342 250.121 294.277 252.456C275.385 255.044 256.706 249.424 241.885 242.14C244.357 235.704 244.921 228.243 241.593 219.985C235.266 204.283 225.519 197.376 218.046 194.337C220.947 183.081 223.605 169.704 223.107 157.328L350.345 163.043Z" fill="#432D22"/>
<path fill-rule="evenodd" clip-rule="evenodd" d="M355.988 256.087C355.988 256.087 362.608 259.201 369.984 267.82C375.246 273.971 397.083 332.091 410.254 368.723C413.512 377.788 426.267 409.4 400.902 427.359L395.439 432.25C387.032 414.812 366.016 368.435 366.016 368.435L355.988 256.087Z" fill="#FB9301"/>
<path fill-rule="evenodd" clip-rule="evenodd" d="M415.927 389.964C414.812 403.831 402.883 415.428 389.083 418.772C391.532 424.033 393.742 428.732 395.439 432.25L400.902 427.359C415.395 417.099 417.44 402.384 415.927 389.964ZM355.988 256.087C355.988 256.087 362.608 259.201 369.984 267.82C370.884 268.875 372.268 271.447 374.012 275.169C372.374 284.187 372.764 296.391 377.478 312.803C392.158 363.909 385.407 391.619 378.74 394.529L378.047 394.827C371.535 380.609 366.016 368.435 366.016 368.435L355.988 256.087Z" fill="#FB9301"/>
<path fill-rule="evenodd" clip-rule="evenodd" d="M290.69 238.852C290.69 238.852 353.277 253.659 356.161 256.349C359.045 259.045 372.087 323.519 372.119 329.815C372.15 335.631 357.082 415.513 354.623 437.323H226.758C224.298 415.513 209.23 335.631 209.261 329.815C209.293 323.519 222.335 259.045 225.219 256.349C228.103 253.659 290.69 238.852 290.69 238.852Z" fill="#FB9301"/>
<path fill-rule="evenodd" clip-rule="evenodd" d="M290.69 238.852C290.69 238.852 353.277 253.659 356.161 256.349C359.045 259.045 372.087 323.519 372.119 329.815C372.146 335.152 359.454 402.9 355.467 430.848C310.029 433.561 284.009 454.167 307.938 447.284C331.867 440.403 329.319 394.723 329.319 384.525C329.319 374.325 304.961 352.867 318.866 342.937C332.773 333.003 350.227 280.789 345.474 274.851C340.723 268.912 297.009 248.481 297.009 248.481C297.009 248.481 283.118 253.08 283.389 240.6C287.862 239.52 290.69 238.852 290.69 238.852Z" fill="#FB9301"/>
<path fill-rule="evenodd" clip-rule="evenodd" d="M290.69 238.852C290.69 238.852 308.166 242.828 325.428 247.033C322.433 263.188 308.309 275.571 291.282 275.789L290.857 275.797C273.537 276.02 258.925 263.54 255.866 247.051C273.157 242.837 290.69 238.852 290.69 238.852Z" fill="white"/>
<path fill-rule="evenodd" clip-rule="evenodd" d="M290.69 238.852C290.69 238.852 308.166 242.828 325.427 247.034C324.565 251.684 322.777 256.023 320.266 259.851C308.453 253.829 297.009 248.482 297.009 248.482C297.009 248.482 283.118 253.08 283.389 240.6C283.389 240.574 283.399 240.551 283.401 240.53C287.879 239.495 290.69 238.852 290.69 238.852Z" fill="#E6EFF9"/>
<path fill-rule="evenodd" clip-rule="evenodd" d="M289.868 191.971L290.294 191.967C302.604 191.823 312.79 201.778 312.934 214.087L313.238 240.382C313.38 252.687 303.426 262.876 291.117 263.016L290.69 263.024C278.382 263.164 268.193 253.21 268.053 240.9L267.748 214.608C267.605 202.302 277.56 192.114 289.868 191.971Z" fill="#FAB6A9"/>
<path fill-rule="evenodd" clip-rule="evenodd" d="M241.101 172.669C240.76 172.717 240.422 172.772 240.088 172.843L240.078 172.847L240.081 172.844C233.925 174.135 229.249 179.533 229.124 186.089C228.981 193.708 235.041 200.003 242.661 200.148C250.28 200.291 256.574 194.231 256.72 186.613C256.805 182.184 254.793 178.204 251.597 175.619C251.948 179.693 251.302 184.736 246.101 185.241L246.252 177.284C246.313 174.064 243.31 172.58 241.101 172.669Z" fill="#FAB6A9"/>
<path fill-rule="evenodd" clip-rule="evenodd" d="M340.696 172.669C341.038 172.717 341.374 172.772 341.707 172.843L341.719 172.847L341.718 172.844C347.871 174.135 352.547 179.533 352.674 186.089C352.815 193.708 346.756 200.003 339.136 200.148C331.515 200.291 325.22 194.231 325.078 186.613C324.992 182.184 327.004 178.204 330.198 175.619C329.847 179.693 330.495 184.736 335.695 185.241L335.546 177.284C335.483 174.064 338.487 172.58 340.696 172.669Z" fill="#FAB6A9"/>
<path fill-rule="evenodd" clip-rule="evenodd" d="M290.9 103.74C264.915 103.74 243.652 124.999 243.652 150.984V193.956C243.652 219.94 264.915 241.201 290.9 241.201C316.882 241.201 338.144 219.94 338.144 193.956V150.984C338.144 124.999 316.882 103.74 290.9 103.74Z" fill="#FAB6A9"/>
<path fill-rule="evenodd" clip-rule="evenodd" d="M276.118 177.105L256.58 198.945C255.686 197.875 254.938 196.676 254.371 195.38L272.332 175.304C273.687 175.725 274.959 176.336 276.118 177.105ZM282.259 185.675C281.52 182.865 279.979 180.381 277.895 178.487L258.151 200.555C260.251 202.405 262.879 203.672 265.78 204.096L282.259 185.675Z" fill="#F5B18A"/>
<path fill-rule="evenodd" clip-rule="evenodd" d="M329.298 183.607C328.202 181.052 326.402 178.867 324.15 177.295L304.553 199.201C306.353 201.256 308.714 202.808 311.397 203.619L329.298 183.607ZM322.176 176.135L303.181 197.368C302.397 196.132 301.79 194.773 301.398 193.325L317.958 174.813C319.449 175.044 320.866 175.495 322.176 176.135Z" fill="#F5B18A"/>
<path fill-rule="evenodd" clip-rule="evenodd" d="M302.593 239.727C322.967 234.487 338.145 215.909 338.145 193.956V150.984C338.145 136.651 331.673 123.759 321.51 115.075C290.483 118.347 257.993 121.157 257.993 121.157C257.993 121.157 240.173 154.416 249.997 161.432L251.635 159.579C251.635 159.579 303.346 159.579 312.519 159.579C321.693 159.579 328.819 161.719 328.819 172.908C328.819 184.093 328.819 197.208 328.819 205.449C328.819 212.6 319.102 234.152 302.593 239.727Z" fill="#FAB6A9"/>
<path fill-rule="evenodd" clip-rule="evenodd" d="M317.684 196.295C314.254 196.228 311.419 198.959 311.354 202.388C311.288 205.819 314.018 208.652 317.448 208.719C320.878 208.783 323.714 206.053 323.779 202.624C323.843 199.193 321.114 196.357 317.684 196.295Z" fill="#E94E50"/>
<path fill-rule="evenodd" clip-rule="evenodd" d="M264.246 195.277C260.816 195.215 257.98 197.943 257.914 201.373C257.85 204.803 260.578 207.637 264.009 207.703C267.44 207.769 270.274 205.041 270.341 201.608C270.404 198.179 267.676 195.345 264.246 195.277Z" fill="#E94E50"/>
<path fill-rule="evenodd" clip-rule="evenodd" d="M261.573 170.824C265.12 169.051 269.74 168.671 273.234 170.769C273.956 171.201 274.912 170.961 275.345 170.24C275.776 169.519 275.534 168.563 274.814 168.132C270.457 165.517 264.64 165.831 260.2 168.076C259.445 168.459 259.134 169.38 259.513 170.136C259.892 170.896 260.816 171.201 261.573 170.824Z" fill="#432D22"/>
<path fill-rule="evenodd" clip-rule="evenodd" d="M262.942 188.692C262.942 187.492 263.418 186.351 264.266 185.5C265.114 184.652 266.255 184.179 267.457 184.179C268.655 184.179 269.798 184.652 270.647 185.5C271.495 186.351 271.97 187.492 271.97 188.692C271.97 189.543 272.659 190.233 273.51 190.233C274.361 190.233 275.051 189.543 275.051 188.692C275.051 186.672 274.257 184.748 272.827 183.32C271.398 181.892 269.475 181.096 267.457 181.096C265.437 181.096 263.514 181.892 262.085 183.32C260.658 184.748 259.859 186.672 259.859 188.692C259.859 189.543 260.55 190.233 261.399 190.233C262.253 190.233 262.942 189.543 262.942 188.692Z" fill="#432D22"/>
<path fill-rule="evenodd" clip-rule="evenodd" d="M320.644 188.692C320.644 189.543 321.336 190.233 322.184 190.233C323.037 190.233 323.728 189.543 323.728 188.692C323.728 186.672 322.93 184.748 321.502 183.32C320.074 181.892 318.15 181.096 316.13 181.096C314.113 181.096 312.188 181.892 310.761 183.32C309.332 184.748 308.534 186.672 308.534 188.692C308.534 189.543 309.225 190.233 310.076 190.233C310.926 190.233 311.617 189.543 311.617 188.692C311.617 187.492 312.092 186.351 312.94 185.5C313.788 184.652 314.93 184.179 316.13 184.179C317.332 184.179 318.474 184.652 319.322 185.5C320.172 186.351 320.644 187.492 320.644 188.692Z" fill="#432D22"/>
<path fill-rule="evenodd" clip-rule="evenodd" d="M322.011 170.824C322.769 171.202 323.693 170.896 324.074 170.139C324.454 169.378 324.137 168.463 323.386 168.076C318.986 165.82 313.091 165.539 308.771 168.132C308.051 168.564 307.811 169.519 308.243 170.24C308.675 170.962 309.631 171.202 310.351 170.77C313.847 168.671 318.466 169.052 322.011 170.824Z" fill="#432D22"/>
<path fill-rule="evenodd" clip-rule="evenodd" d="M202.789 399.481L200.373 401.787L234.88 420.195L227.165 432.271H187.822C187.822 432.271 178.844 428.275 179.557 424.144C180.269 420.008 188.821 396.916 202.789 399.481Z" fill="#E83A5F"/>
<path fill-rule="evenodd" clip-rule="evenodd" d="M221.664 413.145L234.88 420.195L227.165 432.271H187.822C187.822 432.271 178.844 428.275 179.557 424.144C179.805 422.7 181.01 418.939 183.072 414.768C190.388 419.007 199.16 420.859 207.512 419.055C214.377 417.573 218.808 415.399 221.664 413.145Z" fill="#FB9301"/>
<path fill-rule="evenodd" clip-rule="evenodd" d="M249.423 419.344C249.423 419.344 242.79 414.904 239.217 412.764C235.645 410.621 231.867 411.539 229.621 412.864C227.375 414.192 217.474 422.18 215.943 423.799C214.414 425.421 223.294 428.992 224.211 428.992C225.13 428.992 249.423 419.344 249.423 419.344Z" fill="#FAB6A9"/>
<path fill-rule="evenodd" clip-rule="evenodd" d="M378.821 399.481L381.237 401.787L346.731 420.195L354.446 432.271H393.786C393.786 432.271 402.769 428.275 402.057 424.144C401.342 420.008 392.79 396.916 378.821 399.481Z" fill="#E83A5F"/>
<path fill-rule="evenodd" clip-rule="evenodd" d="M360.234 412.993L346.731 420.195L354.446 432.271H393.786C393.786 432.271 402.769 428.275 402.057 424.144C401.811 422.721 400.639 419.065 398.645 414.983C391.406 419.069 382.786 420.828 374.575 419.055C367.555 417.541 363.081 415.299 360.234 412.993Z" fill="#FB9301"/>
<path fill-rule="evenodd" clip-rule="evenodd" d="M332.186 419.344C332.186 419.344 338.819 414.904 342.395 412.764C345.967 410.621 349.743 411.539 351.99 412.864C354.232 414.192 364.135 422.18 365.667 423.799C367.198 425.421 358.316 428.992 357.398 428.992C356.482 428.992 332.186 419.344 332.186 419.344Z" fill="#FAB6A9"/>
<path fill-rule="evenodd" clip-rule="evenodd" d="M202.203 434.709H379.178C382.475 434.709 385.17 432.014 385.17 428.717C385.17 425.421 382.475 422.725 379.178 422.725H202.203C198.906 422.725 196.211 425.421 196.211 428.717C196.211 432.009 198.906 434.709 202.203 434.709Z" fill="#412F25"/>
<path fill-rule="evenodd" clip-rule="evenodd" d="M333.173 173.331C333.173 173.331 333.173 176.489 333.173 179.42C333.173 182.353 335.896 185.625 338.145 185.625V178.969C338.145 178.969 339.098 174.061 345.158 174.061C363.753 152.683 361.301 118.746 341.45 101.15C321.6 83.5535 278.966 82.4268 271.521 84.9095C264.077 87.3882 256.408 100.02 256.408 100.02C256.408 100.02 250.092 94.3802 244.228 97.3122C238.362 100.244 218.734 137.237 218.734 146.485C218.734 155.736 236.64 174.061 236.64 174.061C242.701 174.061 243.653 178.969 243.653 178.969V185.625C245.901 185.625 248.625 182.353 248.625 179.42C248.625 176.489 248.625 173.331 248.625 173.331C248.625 173.331 253.906 164.96 253.906 156.163H266.524C267.742 156.163 268.926 154.847 269.196 153.563C269.466 152.276 270.28 143.748 270.55 141.717C270.82 139.689 271.497 138.672 271.904 139.214C272.31 139.756 272.581 146.793 273.257 151.328C273.924 155.793 276.95 156.153 277.045 156.163H277.046H330.03C330.03 156.163 330.453 166.881 333.173 173.331Z" fill="#412F25"/>
<path fill-rule="evenodd" clip-rule="evenodd" d="M354.682 121.079C352.25 114.24 348.42 107.964 343.268 102.855C330.358 117.995 298.587 144.077 261.116 93.4628C260.368 94.3761 259.687 95.2654 259.087 96.0814C263.668 106.572 272.826 121.992 289.579 131.608C313.214 145.173 343.424 139.353 354.682 121.079Z" fill="#5B4033"/>
<path fill-rule="evenodd" clip-rule="evenodd" d="M333.173 173.331C333.173 173.331 333.173 176.488 333.173 179.423C333.173 182.353 335.896 185.623 338.145 185.623V178.969C338.145 178.969 339.098 174.061 345.158 174.061C356.702 160.789 360.132 142.675 356.326 126.637C354.848 134.46 348.901 149.663 324.98 149.663C292.778 149.663 273.726 132.739 271.766 130.956C269.806 129.175 268.441 131.372 268.441 131.372C268.441 131.372 257.454 148.089 238.506 143.013C230.52 140.871 227.114 133.825 225.845 126.391C221.788 134.876 218.734 142.839 218.734 146.485C218.734 155.733 236.64 174.061 236.64 174.061C242.701 174.061 243.653 178.969 243.653 178.969V185.623C245.901 185.623 248.625 182.353 248.625 179.423C248.625 176.488 248.625 173.331 248.625 173.331C248.625 173.331 253.908 164.96 253.908 156.163H266.524C267.742 156.163 268.926 154.849 269.196 153.563C269.466 152.276 270.28 143.748 270.55 141.717C270.82 139.687 271.497 138.672 271.904 139.213C272.31 139.753 272.581 146.793 273.257 151.328C273.924 155.792 276.95 156.153 277.045 156.163H277.046H330.03C330.03 156.163 330.453 166.881 333.173 173.331Z" fill="#432D22"/>
<path fill-rule="evenodd" clip-rule="evenodd" d="M304.802 208.089C304.666 215.503 298.545 221.4 291.132 221.263C283.72 221.125 277.822 215.004 277.958 207.591H277.982C278.006 206.316 279.068 205.291 280.342 205.317L302.508 205.729C303.781 205.753 304.805 206.815 304.781 208.089H304.802Z" fill="#432D22"/>
<path fill-rule="evenodd" clip-rule="evenodd" d="M299.609 218.447C297.271 220.264 294.321 221.321 291.131 221.263C288.526 221.215 286.109 220.427 284.075 219.101C285.157 216.368 288.209 214.363 291.841 214.295C295.307 214.232 298.31 215.948 299.609 218.447Z" fill="#D8303C"/>
<path fill-rule="evenodd" clip-rule="evenodd" d="M281.092 205.329L301.924 205.716C302.21 208.027 301.1 210.336 299.54 210.813C297.644 211.392 282.576 210.72 281.534 209.513C281.03 208.931 280.992 207.084 281.092 205.329Z" fill="white"/>
<path fill-rule="evenodd" clip-rule="evenodd" d="M287.224 196.244C287.224 196.244 285.378 199.617 285.957 201.411C286.538 203.201 289.066 202.253 289.332 200.672C289.594 199.091 288.83 196.113 288.645 195.772C288.461 195.428 287.67 195.297 287.224 196.244Z" fill="#F8C3A4"/>
<path fill-rule="evenodd" clip-rule="evenodd" d="M279.574 425.432H303.914V387.756H279.574V425.432Z" fill="#432D22"/>
<path fill-rule="evenodd" clip-rule="evenodd" d="M237.586 435.103H343.794C348.055 435.103 351.536 431.616 351.536 427.359C351.536 423.097 348.054 419.615 343.794 419.615H237.586C233.326 419.615 229.842 423.097 229.842 427.359C229.842 431.616 233.326 435.103 237.586 435.103Z" fill="#412F25"/>
<path fill-rule="evenodd" clip-rule="evenodd" d="M190.213 285.589H307.902V407.967H205.666C201.341 407.967 197.356 404.429 196.81 400.105L183.341 293.455C182.794 289.127 185.888 285.589 190.213 285.589Z" fill="#201F1D"/>
<path fill-rule="evenodd" clip-rule="evenodd" d="M190.213 285.589H307.902V407.967H205.666C201.341 407.967 197.356 404.429 196.81 400.105L183.341 293.455C182.794 289.127 185.888 285.589 190.213 285.589Z" fill="#323130"/>
<path fill-rule="evenodd" clip-rule="evenodd" d="M198.688 359.892H307.902V365.984H199.456C197.782 365.984 196.238 364.615 196.026 362.94C195.814 361.263 197.012 359.892 198.688 359.892Z" fill="#201F1D"/>
<path fill-rule="evenodd" clip-rule="evenodd" d="M201.577 369.165H307.902V403.599H205.926C203.306 403.599 200.889 401.452 200.558 398.831L197.414 373.932C197.082 371.311 198.957 369.165 201.577 369.165Z" fill="#201F1D"/>
<path fill-rule="evenodd" clip-rule="evenodd" d="M207.598 310.392H233.558C235.162 310.392 236.638 311.704 236.839 313.307L241.59 350.921C241.791 352.524 240.647 353.835 239.042 353.835H213.085C211.481 353.835 210.006 352.524 209.802 350.921L205.051 313.307C204.85 311.704 205.995 310.392 207.598 310.392Z" fill="#412F25"/>
<path fill-rule="evenodd" clip-rule="evenodd" d="M204.155 310.392H230.114C231.716 310.392 233.192 311.704 233.396 313.307L238.146 350.921C238.348 352.524 237.203 353.835 235.599 353.835H209.639C208.038 353.835 206.56 352.524 206.358 350.921L201.608 313.307C201.406 311.704 202.551 310.392 204.155 310.392Z" fill="#201F1D"/>
<path fill-rule="evenodd" clip-rule="evenodd" d="M208.979 332.112C209.835 332.112 210.619 332.813 210.727 333.667L212.375 346.719C212.483 347.576 211.874 348.271 211.019 348.271C210.165 348.271 209.379 347.576 209.273 346.719L207.623 333.667C207.517 332.813 208.125 332.112 208.979 332.112Z" fill="#412F25"/>
<path fill-rule="evenodd" clip-rule="evenodd" d="M216.31 332.112C217.165 332.112 217.952 332.813 218.06 333.667L219.706 346.719C219.814 347.576 219.204 348.271 218.35 348.271C217.497 348.271 216.712 347.576 216.604 346.719L214.956 333.667C214.848 332.813 215.457 332.112 216.31 332.112Z" fill="#412F25"/>
<path fill-rule="evenodd" clip-rule="evenodd" d="M223.642 332.112C224.497 332.112 225.282 332.813 225.39 333.667L227.038 346.719C227.146 347.576 226.537 348.271 225.681 348.271C224.827 348.271 224.042 347.576 223.935 346.719L222.286 333.667C222.177 332.813 222.787 332.112 223.642 332.112Z" fill="#412F25"/>
<path fill-rule="evenodd" clip-rule="evenodd" d="M230.973 332.112C231.826 332.112 232.614 332.813 232.721 333.667L234.37 346.719C234.477 347.576 233.866 348.271 233.013 348.271C232.16 348.271 231.374 347.576 231.265 346.719L229.617 333.667C229.509 332.813 230.12 332.112 230.973 332.112Z" fill="#412F25"/>
<path fill-rule="evenodd" clip-rule="evenodd" d="M190.491 294.992H307.902V301.084H191.262C189.586 301.084 188.041 299.715 187.83 298.036C187.618 296.361 188.815 294.992 190.491 294.992Z" fill="#201F1D"/>
<path fill-rule="evenodd" clip-rule="evenodd" d="M203.431 377.043H307.902V379.425H203.731C203.076 379.425 202.474 378.891 202.39 378.233C202.307 377.577 202.774 377.043 203.431 377.043ZM204.075 382.139H307.902V384.525H204.376C203.72 384.525 203.116 383.988 203.032 383.333C202.951 382.677 203.42 382.139 204.075 382.139ZM204.719 387.239H307.902V389.623H205.02C204.364 389.623 203.759 389.088 203.676 388.431C203.594 387.777 204.063 387.239 204.719 387.239ZM205.363 392.339H307.902V394.723H205.664C205.007 394.723 204.403 394.188 204.322 393.531C204.239 392.875 204.706 392.339 205.363 392.339ZM206.007 397.436H307.902V399.824H206.308C205.651 399.824 205.048 399.284 204.966 398.631C204.883 397.975 205.35 397.436 206.007 397.436ZM202.787 371.941H307.902V374.325H203.088C202.432 374.325 201.827 373.791 201.746 373.133C201.663 372.48 202.13 371.941 202.787 371.941Z" fill="#412F25"/>
<path fill-rule="evenodd" clip-rule="evenodd" d="M247.767 307.572H307.902V352.867H253.487C252.104 352.867 250.83 351.733 250.655 350.353L245.57 310.085C245.396 308.701 246.383 307.572 247.767 307.572Z" fill="#201F1D"/>
<path fill-rule="evenodd" clip-rule="evenodd" d="M252.08 313.4H288.106C288.835 313.4 289.504 313.995 289.598 314.724C289.69 315.452 289.17 316.047 288.44 316.047H252.415C251.686 316.047 251.015 315.452 250.923 314.724C250.83 313.995 251.351 313.4 252.08 313.4Z" fill="white"/>
<path fill-rule="evenodd" clip-rule="evenodd" d="M252.916 320.023H307.902V322.672H253.252C252.523 322.672 251.851 322.075 251.759 321.347H251.758C251.67 320.616 252.187 320.023 252.916 320.023Z" fill="#412F25"/>
<path fill-rule="evenodd" clip-rule="evenodd" d="M253.77 326.777H307.902V329.425H254.105C253.374 329.425 252.705 328.831 252.614 328.104V328.1C252.521 327.372 253.041 326.777 253.77 326.777Z" fill="#412F25"/>
<path fill-rule="evenodd" clip-rule="evenodd" d="M254.623 333.531H307.902V336.18H254.958C254.228 336.18 253.559 335.587 253.466 334.855C253.374 334.128 253.892 333.531 254.623 333.531Z" fill="#412F25"/>
<path fill-rule="evenodd" clip-rule="evenodd" d="M255.475 340.285H307.902V342.938H255.811C255.082 342.938 254.41 342.339 254.319 341.611C254.227 340.88 254.746 340.285 255.475 340.285Z" fill="#412F25"/>
<path fill-rule="evenodd" clip-rule="evenodd" d="M256.33 347.043H307.902V349.688H256.663C255.934 349.688 255.264 349.095 255.171 348.367V348.364C255.078 347.636 255.6 347.043 256.33 347.043Z" fill="#412F25"/>
<path fill-rule="evenodd" clip-rule="evenodd" d="M372.907 383.245C372.907 383.245 375.549 378.928 379.238 378.743C382.927 378.556 382.811 383.049 381.562 383.599C380.314 384.148 372.907 383.245 372.907 383.245Z" fill="#E1E0DE"/>
<path fill-rule="evenodd" clip-rule="evenodd" d="M373.498 390.917L372.577 390.715C372.573 390.715 372.569 390.715 372.565 390.715L369.433 390.02C369.773 401.051 381.531 399.467 379.942 390.969L374.782 389.829L374.589 390.393C374.457 390.788 374.038 391.037 373.657 390.955L373.498 390.917Z" fill="#E1E0DE"/>
<path fill-rule="evenodd" clip-rule="evenodd" d="M304.961 285.589H393.27C397.596 285.589 400.692 289.127 400.148 293.455L386.796 400.105C386.254 404.429 382.273 407.967 377.948 407.967H304.961V285.589Z" fill="#201F1D"/>
<path fill-rule="evenodd" clip-rule="evenodd" d="M304.961 285.589H388.106C392.432 285.589 395.526 289.127 394.985 293.455L381.63 400.105C381.089 404.429 377.108 407.967 372.782 407.967H304.961V285.589Z" fill="#323130"/>
<path fill-rule="evenodd" clip-rule="evenodd" d="M304.961 359.892H378.521C380.196 359.892 381.397 361.263 381.186 362.94C380.977 364.615 379.436 365.984 377.76 365.984H304.961V359.892Z" fill="#201F1D"/>
<path fill-rule="evenodd" clip-rule="evenodd" d="M304.961 369.165H375.64C378.262 369.165 380.137 371.311 379.81 373.932L376.693 398.831C376.364 401.452 373.952 403.599 371.33 403.599H304.961V369.165Z" fill="#201F1D"/>
<path fill-rule="evenodd" clip-rule="evenodd" d="M304.961 294.992H386.648C388.324 294.992 389.522 296.361 389.31 298.036C389.104 299.715 387.56 301.084 385.885 301.084H304.961V294.992Z" fill="#201F1D"/>
<path fill-rule="evenodd" clip-rule="evenodd" d="M304.961 377.043H373.796C374.453 377.043 374.921 377.577 374.84 378.233C374.758 378.891 374.154 379.425 373.498 379.425H304.961V377.043ZM304.961 382.139H373.158C373.813 382.139 374.284 382.677 374.201 383.333C374.118 383.988 373.516 384.525 372.858 384.525H304.961V382.139ZM304.961 387.239H372.52C373.176 387.239 373.644 387.777 373.564 388.431C373.481 389.088 372.876 389.623 372.221 389.623H304.961V387.239ZM304.961 392.339H371.881C372.536 392.339 373.006 392.875 372.924 393.531C372.841 394.188 372.237 394.723 371.582 394.723H304.961V392.339ZM304.961 397.436H371.242C371.9 397.436 372.368 397.975 372.286 398.631C372.202 399.284 371.6 399.824 370.945 399.824H304.961V397.436ZM304.961 371.941H374.436C375.09 371.941 375.56 372.48 375.478 373.133C375.397 373.791 374.79 374.325 374.136 374.325H304.961V371.941Z" fill="#412F25"/>
<path fill-rule="evenodd" clip-rule="evenodd" d="M370.057 329.465H372.744C373.717 329.465 374.413 330.26 374.292 331.232L373.318 339.016C373.194 339.989 372.3 340.783 371.329 340.783H368.638C367.666 340.783 366.97 339.989 367.093 339.016L368.066 331.232C368.188 330.26 369.084 329.465 370.057 329.465Z" fill="#412F25"/>
<path fill-rule="evenodd" clip-rule="evenodd" d="M370.976 312.739H376.011C377.834 312.739 379.135 314.227 378.908 316.051L377.083 330.62C376.856 332.439 375.178 333.932 373.358 333.932H368.324C366.504 333.932 365.2 332.439 365.427 330.62L367.254 316.051C367.48 314.227 369.156 312.739 370.976 312.739Z" fill="#201F1D"/>
<path fill-rule="evenodd" clip-rule="evenodd" d="M304.961 307.572H354.808C356.192 307.572 357.181 308.701 357.008 310.085L351.966 350.353C351.793 351.733 350.52 352.867 349.137 352.867H304.961V307.572Z" fill="#201F1D"/>
<path fill-rule="evenodd" clip-rule="evenodd" d="M304.961 320.023H346.624C347.353 320.023 347.876 320.616 347.784 321.347C347.692 322.075 347.021 322.672 346.294 322.672H304.961V320.023Z" fill="#412F25"/>
<path fill-rule="evenodd" clip-rule="evenodd" d="M304.961 326.777H345.781C346.508 326.777 347.028 327.372 346.937 328.1V328.104C346.846 328.831 346.176 329.425 345.446 329.425H304.961V326.777Z" fill="#412F25"/>
<path fill-rule="evenodd" clip-rule="evenodd" d="M304.961 333.531H344.934C345.664 333.531 346.182 334.128 346.092 334.855C346.001 335.587 345.332 336.18 344.604 336.18H304.961V333.531Z" fill="#412F25"/>
<path fill-rule="evenodd" clip-rule="evenodd" d="M304.961 340.285H344.088C344.817 340.285 345.337 340.88 345.245 341.611C345.154 342.339 344.485 342.938 343.757 342.938H304.961V340.285Z" fill="#412F25"/>
<path fill-rule="evenodd" clip-rule="evenodd" d="M304.961 347.043H343.242C343.97 347.043 344.49 347.636 344.398 348.364V348.367C344.31 349.095 343.64 349.688 342.91 349.688H304.961V347.043Z" fill="#412F25"/>
<path fill-rule="evenodd" clip-rule="evenodd" d="M347.453 313.4H333.316C332.585 313.4 331.916 313.995 331.825 314.724C331.733 315.452 332.253 316.047 332.984 316.047H347.121C347.85 316.047 348.521 315.452 348.613 314.724C348.704 313.995 348.184 313.4 347.453 313.4Z" fill="#323130"/>
<path fill-rule="evenodd" clip-rule="evenodd" d="M328.641 313.4H295.141C294.411 313.4 293.741 313.995 293.65 314.724C293.559 315.452 294.078 316.047 294.809 316.047H328.307C329.037 316.047 329.707 315.452 329.798 314.724C329.889 313.995 329.369 313.4 328.641 313.4Z" fill="#323130"/>
<path fill-rule="evenodd" clip-rule="evenodd" d="M163.976 270.671C164.788 270.671 165.45 270.009 165.45 269.197C165.45 268.388 164.788 267.723 163.976 267.723C163.164 267.723 162.501 268.388 162.501 269.197C162.501 270.009 163.164 270.671 163.976 270.671Z" fill="white"/>
<path fill-rule="evenodd" clip-rule="evenodd" d="M169.154 335.441C169.966 335.441 170.629 334.636 170.629 333.653C170.629 332.664 169.966 331.86 169.154 331.86C168.342 331.86 167.681 332.664 167.681 333.653C167.681 334.636 168.342 335.441 169.154 335.441Z" fill="white"/>
<path fill-rule="evenodd" clip-rule="evenodd" d="M277.458 179.723C275.019 177.284 271.649 175.775 267.927 175.775C264.206 175.775 260.837 177.284 258.398 179.723C255.958 182.161 254.45 185.532 254.45 189.253C254.45 192.975 255.958 196.345 258.398 198.784C260.837 201.22 264.206 202.732 267.927 202.732C271.649 202.732 275.019 201.22 277.458 198.784C279.898 196.345 281.406 192.975 281.406 189.253C281.406 185.532 279.898 182.161 277.458 179.723ZM325.369 179.723C322.93 177.284 319.561 175.775 315.839 175.775C312.118 175.775 308.746 177.284 306.307 179.723C303.871 182.161 302.361 185.532 302.361 189.253C302.361 192.975 303.871 196.345 306.307 198.784C308.746 201.22 312.118 202.732 315.839 202.732C319.561 202.732 322.93 201.22 325.369 198.784C327.807 196.345 329.317 192.975 329.317 189.253C329.317 185.532 327.807 182.161 325.369 179.723ZM267.927 173.081C272.394 173.081 276.438 174.893 279.363 177.819C281.521 179.977 283.074 182.748 283.739 185.845C286.627 185.172 293.275 184.04 300.033 185.821C300.699 182.733 302.249 179.973 304.403 177.819C307.329 174.893 311.373 173.081 315.839 173.081C320.305 173.081 324.347 174.893 327.274 177.819C328.639 179.185 329.762 180.793 330.571 182.577L336.841 178.016C337.437 177.579 338.277 177.713 338.713 178.311C339.149 178.908 339.017 179.747 338.417 180.183L331.502 185.217C331.834 186.507 332.01 187.859 332.01 189.253C332.01 193.719 330.201 197.763 327.274 200.688C324.347 203.613 320.305 205.425 315.839 205.425C311.373 205.425 307.329 203.613 304.403 200.688C301.479 197.763 299.667 193.719 299.667 189.253C299.667 189.004 299.674 188.757 299.683 188.513C293.095 186.664 286.543 187.913 284.082 188.519C284.093 188.764 284.099 189.007 284.099 189.253C284.099 193.719 282.287 197.763 279.363 200.688C276.438 203.613 272.394 205.425 267.927 205.425C263.462 205.425 259.418 203.613 256.493 200.688C253.567 197.763 251.757 193.719 251.757 189.253C251.757 187.833 251.941 186.459 252.282 185.148L245.462 180.183C244.865 179.747 244.731 178.908 245.17 178.311C245.603 177.713 246.443 177.579 247.042 178.016L253.225 182.515C254.03 180.756 255.142 179.168 256.493 177.819C259.418 174.893 263.462 173.081 267.927 173.081Z" fill="#432D22"/>
<path fill-rule="evenodd" clip-rule="evenodd" d="M249.917 55.3508C250.894 55.6322 251.821 56.0295 252.681 56.5269C253.565 57.0375 254.377 57.6522 255.106 58.3548C255.248 58.4922 255.461 58.5122 255.622 58.4175L258.9 56.5242L258.92 56.5162C259.106 56.4109 259.32 56.3935 259.517 56.4469C259.717 56.5002 259.898 56.6309 260.01 56.8242L260.024 56.8455L262.329 60.8402C262.44 61.0335 262.462 61.2535 262.408 61.4562C262.354 61.6588 262.225 61.8389 262.032 61.9495L262.009 61.9629L258.76 63.8389C258.586 63.9389 258.509 64.1362 258.553 64.3188C258.674 64.8002 258.765 65.2989 258.826 65.8069C258.888 66.3042 258.92 66.8122 258.92 67.3282C258.92 67.8442 258.888 68.3522 258.826 68.8469C258.765 69.3562 258.674 69.8535 258.553 70.3375C258.504 70.5375 258.604 70.7402 258.782 70.8295L262.032 72.7042V72.7055C262.225 72.8175 262.354 72.9962 262.408 73.1989C262.462 73.4015 262.44 73.6242 262.329 73.8162L260.01 77.8322C259.898 78.0242 259.717 78.1549 259.517 78.2082C259.314 78.2629 259.093 78.2402 258.9 78.1295L258.876 78.1162L255.622 76.2375C255.452 76.1415 255.242 76.1709 255.106 76.3002C254.377 77.0015 253.565 77.6189 252.682 78.1269C251.816 78.6282 250.882 79.0295 249.898 79.3109C249.709 79.3655 249.585 79.5375 249.584 79.7269V83.5082C249.584 83.7309 249.492 83.9322 249.345 84.0789C249.197 84.2255 248.994 84.3188 248.774 84.3188H244.134C243.912 84.3188 243.709 84.2255 243.562 84.0789C243.414 83.9322 243.322 83.7309 243.322 83.5082V79.7269C243.322 79.5229 243.18 79.3509 242.99 79.3055C242.013 79.0229 241.086 78.6242 240.225 78.1295C239.344 77.6189 238.529 77.0015 237.801 76.3002C237.653 76.1562 237.428 76.1415 237.262 76.2508L234.008 78.1309C233.814 78.2429 233.593 78.2629 233.392 78.2082C233.192 78.1549 233.009 78.0242 232.898 77.8322L232.885 77.8095L230.578 73.8135C230.468 73.6229 230.446 73.4002 230.5 73.1989C230.554 72.9962 230.684 72.8149 230.874 72.7055L234.149 70.8149C234.32 70.7162 234.398 70.5189 234.353 70.3375H234.354C234.234 69.8535 234.144 69.3562 234.08 68.8469C234.021 68.3522 233.989 67.8442 233.989 67.3282C233.989 66.8109 234.021 66.3042 234.08 65.8069C234.144 65.2989 234.234 64.8002 234.354 64.3188C234.402 64.1175 234.305 63.9135 234.126 63.8269L230.874 61.9495C230.684 61.8389 230.554 61.6588 230.5 61.4562C230.446 61.2535 230.468 61.0335 230.578 60.8402L230.592 60.8175L232.898 56.8242C233.009 56.6309 233.192 56.5002 233.392 56.4469C233.593 56.3935 233.814 56.4149 234.008 56.5242L237.284 58.4175C237.46 58.5188 237.676 58.4855 237.81 58.3455C238.537 57.6482 239.348 57.0349 240.225 56.5269C241.092 56.0255 242.024 55.6269 243.008 55.3442C243.198 55.2909 243.322 55.1162 243.322 54.9295V51.1482C243.322 50.9255 243.414 50.7229 243.562 50.5762C243.709 50.4282 243.912 50.3375 244.134 50.3375H248.774C248.994 50.3375 249.197 50.4282 249.345 50.5762C249.492 50.7229 249.584 50.9255 249.584 51.1482V54.9295C249.584 55.1335 249.726 55.3055 249.917 55.3508ZM251.441 62.3402C250.164 61.0642 248.401 60.2735 246.454 60.2735C244.508 60.2735 242.744 61.0642 241.466 62.3402C240.19 63.6162 239.401 65.3802 239.401 67.3282C239.401 69.2749 240.19 71.0389 241.466 72.3135C242.744 73.5909 244.508 74.3815 246.454 74.3815C248.401 74.3815 250.164 73.5909 251.441 72.3135C252.718 71.0389 253.508 69.2749 253.508 67.3282C253.508 65.3802 252.718 63.6162 251.441 62.3402Z" fill="#B1CABF"/>
<path fill-rule="evenodd" clip-rule="evenodd" d="M194.444 73.9173C195.428 74.3346 196.382 74.8133 197.3 75.3453C198.236 75.884 199.135 76.48 199.99 77.1253C200.846 77.7706 201.666 78.472 202.442 79.22C202.472 79.248 202.508 79.2653 202.55 79.2707C202.591 79.2733 202.631 79.2667 202.667 79.248C204.94 77.9347 207.218 76.628 209.487 75.308C209.756 75.1613 210.046 75.072 210.342 75.0387C210.644 75.0053 210.948 75.0293 211.238 75.1067C211.536 75.1867 211.82 75.324 212.072 75.5173C212.314 75.7013 212.524 75.9347 212.683 76.2133C214.331 78.8827 215.896 81.7733 217.472 84.5027C217.634 84.78 217.73 85.0786 217.768 85.384C217.808 85.6986 217.786 86.0147 217.707 86.312C217.627 86.612 217.488 86.896 217.295 87.1467C217.112 87.388 216.878 87.6 216.599 87.76C214.426 89.104 212.066 90.376 209.842 91.6613C209.807 91.6813 209.78 91.7133 209.764 91.7493C209.75 91.7867 209.746 91.8293 209.755 91.8693L209.911 92.5L209.9 92.5013C209.968 92.808 210.031 93.12 210.091 93.4373C210.188 93.9773 210.271 94.5093 210.334 95.0307C210.398 95.548 210.446 96.0813 210.479 96.632C210.511 97.184 210.528 97.724 210.528 98.2493C210.528 98.776 210.511 99.3147 210.479 99.8667C210.446 100.416 210.398 100.952 210.334 101.469C210.271 101.992 210.187 102.523 210.091 103.063C209.99 103.601 209.876 104.124 209.752 104.631C209.742 104.673 209.747 104.716 209.766 104.753C209.784 104.795 209.814 104.828 209.85 104.844C212.332 106.171 214.852 107.732 217.308 109.151L217.222 109.26L217.295 109.352C217.488 109.605 217.627 109.888 217.707 110.188C217.786 110.484 217.808 110.8 217.768 111.116C217.73 111.42 217.634 111.72 217.472 111.997L212.327 120.908L212.231 120.851C212.18 120.896 212.127 120.941 212.072 120.984C211.82 121.175 211.536 121.315 211.238 121.393C210.94 121.473 210.624 121.496 210.311 121.456C210.016 121.419 209.723 121.324 209.454 121.173C207.203 119.98 204.887 118.536 202.663 117.251C202.63 117.235 202.591 117.229 202.55 117.233C202.508 117.239 202.47 117.255 202.44 117.283C201.664 118.031 200.843 118.731 199.988 119.377C199.132 120.021 198.236 120.615 197.3 121.157C196.376 121.691 195.415 122.169 194.426 122.591C193.442 123.009 192.428 123.369 191.398 123.665C191.356 123.677 191.32 123.701 191.299 123.732C191.272 123.767 191.258 123.807 191.259 123.848V131.651C191.259 131.969 191.195 132.277 191.078 132.557C190.955 132.852 190.779 133.115 190.558 133.332C190.339 133.551 190.075 133.729 189.786 133.848C189.504 133.967 189.198 134.032 188.878 134.032H179.303C178.983 134.032 178.675 133.967 178.394 133.848C178.104 133.729 177.842 133.551 177.619 133.332C177.402 133.115 177.227 132.852 177.104 132.557C176.987 132.277 176.92 131.969 176.92 131.651V123.845C176.92 123.8 176.907 123.759 176.883 123.729C176.859 123.697 176.822 123.673 176.778 123.664L176.747 123.653C175.708 123.352 174.703 122.995 173.736 122.584C172.754 122.164 171.799 121.688 170.88 121.157C169.946 120.615 169.047 120.021 168.194 119.375C167.334 118.729 166.515 118.029 165.739 117.281C165.706 117.249 165.667 117.233 165.628 117.229C165.587 117.225 165.543 117.235 165.508 117.259L158.748 121.16C158.471 121.32 158.172 121.419 157.87 121.456C157.556 121.496 157.24 121.473 156.944 121.393C156.646 121.315 156.359 121.175 156.108 120.984C155.872 120.804 155.667 120.576 155.507 120.307C153.731 117.452 152.055 114.325 150.36 111.393L150.452 111.339C150.435 111.264 150.422 111.189 150.412 111.113C150.371 110.8 150.394 110.484 150.474 110.188C150.554 109.888 150.692 109.603 150.886 109.352C151.07 109.111 151.303 108.901 151.58 108.74L158.34 104.839C158.372 104.82 158.4 104.787 158.416 104.751C158.432 104.712 158.436 104.669 158.427 104.629L158.251 103.913L158.262 103.912C158.2 103.633 158.144 103.352 158.092 103.064C157.992 102.524 157.911 101.992 157.846 101.469C157.784 100.952 157.734 100.416 157.703 99.8667C157.67 99.3147 157.651 98.776 157.651 98.2493C157.651 97.724 157.67 97.184 157.703 96.6347C157.734 96.084 157.784 95.548 157.846 95.028C157.908 94.5093 157.991 93.9787 158.092 93.4333C158.19 92.8973 158.303 92.376 158.428 91.8693C158.438 91.828 158.432 91.7853 158.416 91.744C158.398 91.708 158.367 91.676 158.328 91.656L151.578 87.7573C151.298 87.596 151.066 87.388 150.884 87.1467C150.691 86.892 150.554 86.608 150.474 86.312C150.394 86.0173 150.371 85.7013 150.412 85.3866C150.45 85.0906 150.544 84.8 150.699 84.5266C152.306 81.5453 154.15 78.5413 155.852 75.592L155.95 75.6506C156.002 75.6026 156.052 75.5573 156.108 75.5173C156.359 75.324 156.646 75.1867 156.944 75.1067C157.24 75.0267 157.556 75.0053 157.87 75.044C158.175 75.0827 158.475 75.18 158.748 75.3347L159.247 75.6226L159.246 75.6293L165.515 79.248C165.552 79.268 165.596 79.276 165.635 79.2707C165.676 79.2667 165.714 79.2453 165.743 79.2173L165.758 79.2013C166.527 78.4627 167.343 77.7667 168.206 77.1147C169.064 76.4707 169.956 75.8773 170.88 75.3453C171.804 74.8107 172.766 74.3293 173.756 73.9107C174.739 73.4907 175.751 73.1307 176.784 72.8347C176.826 72.8227 176.86 72.8 176.883 72.7693C176.908 72.7333 176.924 72.692 176.92 72.6533V64.8493C176.92 64.532 176.987 64.2227 177.104 63.9413C177.227 63.6507 177.402 63.3867 177.623 63.1667C177.842 62.9507 178.104 62.772 178.394 62.652C178.675 62.5346 178.983 62.4693 179.303 62.4693H188.878C189.198 62.4693 189.504 62.5346 189.786 62.652C190.075 62.772 190.339 62.9507 190.56 63.1667C190.992 63.6 191.259 64.196 191.259 64.8493V72.6533C191.259 72.7 191.275 72.7413 191.299 72.7733C191.323 72.804 191.36 72.828 191.402 72.8373L191.434 72.848C192.474 73.1493 193.479 73.5053 194.444 73.9173ZM191.078 74.2133C192.034 74.4893 192.972 74.824 193.891 75.2147C194.823 75.612 195.726 76.0627 196.591 76.564C197.475 77.0746 198.326 77.6386 199.139 78.2533C199.956 78.8693 200.732 79.532 201.464 80.236C201.724 80.4853 202.047 80.6307 202.376 80.6707C202.716 80.7147 203.067 80.644 203.374 80.4667C205.614 79.1733 207.971 77.8933 210.168 76.544C210.275 76.488 210.386 76.4547 210.498 76.4413C210.624 76.4293 210.751 76.4387 210.871 76.4707C210.996 76.504 211.115 76.56 211.215 76.6387C211.314 76.7133 211.399 76.8066 211.464 76.92C213.098 79.392 214.738 82.5867 216.252 85.2093C216.315 85.3227 216.356 85.4413 216.371 85.5613C216.386 85.688 216.376 85.82 216.343 85.948C216.31 86.072 216.252 86.1893 216.175 86.292C216.1 86.3893 216.006 86.4733 215.892 86.5387C213.876 87.8733 211.279 89.2067 209.14 90.4413C208.827 90.6213 208.596 90.8907 208.467 91.1973C208.422 91.304 208.387 91.416 208.367 91.5307L208.227 91.576L208.383 92.2067C208.506 92.7027 208.614 93.1973 208.704 93.6906C208.791 94.1706 208.868 94.6707 208.932 95.196C208.994 95.7066 209.04 96.2133 209.07 96.7147C209.099 97.2027 209.115 97.7173 209.115 98.2493C209.115 98.784 209.099 99.2973 209.07 99.7827C209.04 100.284 208.994 100.792 208.932 101.304C208.868 101.827 208.791 102.329 208.703 102.808C208.611 103.301 208.506 103.8 208.383 104.295C208.292 104.661 208.336 105.029 208.483 105.347C208.63 105.664 208.88 105.929 209.204 106.097L215.187 109.549L215.183 109.552L215.892 109.961C216.006 110.028 216.1 110.113 216.175 110.209C216.252 110.309 216.31 110.429 216.343 110.553C216.376 110.681 216.386 110.813 216.371 110.939C216.356 111.057 216.315 111.179 216.252 111.291L211.824 118.963L211.822 118.961L211.464 119.58C211.399 119.693 211.314 119.787 211.215 119.861C211.115 119.939 210.996 119.996 210.871 120.029C210.746 120.063 210.614 120.075 210.487 120.057C210.37 120.043 210.25 120.004 210.139 119.939C207.995 118.593 205.579 117.309 203.37 116.032C203.052 115.852 202.71 115.791 202.38 115.829C202.043 115.871 201.72 116.019 201.466 116.263L201.464 116.264C200.732 116.969 199.955 117.633 199.139 118.249C198.323 118.863 197.474 119.427 196.594 119.936C195.719 120.44 194.812 120.895 193.872 121.295C192.952 121.685 191.995 122.025 191.008 122.307C190.662 122.405 190.374 122.613 190.172 122.881C189.966 123.153 189.848 123.492 189.848 123.848L189.844 131.651C189.844 131.78 189.819 131.907 189.772 132.019C189.724 132.133 189.652 132.241 189.559 132.331C189.471 132.423 189.363 132.495 189.246 132.545C189.135 132.592 189.01 132.617 188.878 132.617H179.303C179.171 132.617 179.047 132.592 178.935 132.545C178.816 132.495 178.71 132.423 178.62 132.333C178.53 132.241 178.455 132.133 178.408 132.019C178.36 131.907 178.335 131.78 178.335 131.651V123.845C178.335 123.475 178.206 123.132 177.988 122.856C177.766 122.576 177.456 122.372 177.104 122.289C176.147 122.015 175.208 121.676 174.29 121.287C173.359 120.889 172.454 120.436 171.588 119.936C170.706 119.427 169.856 118.863 169.043 118.249C168.224 117.632 167.447 116.969 166.718 116.264C166.444 116.004 166.106 115.857 165.755 115.827C165.398 115.793 165.035 115.88 164.728 116.081L158.046 119.939C157.936 120.004 157.814 120.043 157.694 120.057C157.567 120.075 157.435 120.063 157.308 120.029C157.183 119.996 157.066 119.939 156.964 119.861C156.868 119.787 156.783 119.693 156.718 119.58C155.131 116.813 153.518 114.057 151.928 111.291C151.864 111.179 151.824 111.057 151.81 110.937C151.794 110.811 151.804 110.68 151.838 110.551C151.871 110.427 151.928 110.308 152.006 110.208C152.079 110.109 152.172 110.024 152.282 109.961L159.04 106.06C159.352 105.88 159.583 105.611 159.715 105.304C159.75 105.22 159.778 105.135 159.798 105.047L159.975 105.011L159.798 104.295C159.675 103.8 159.568 103.304 159.478 102.812C159.39 102.331 159.312 101.828 159.25 101.304C159.187 100.792 159.139 100.285 159.11 99.784C159.082 99.2973 159.064 98.784 159.064 98.2493C159.064 97.7173 159.082 97.2053 159.11 96.7173C159.139 96.216 159.187 95.7093 159.25 95.1987C159.314 94.668 159.39 94.1626 159.478 93.688C159.568 93.196 159.675 92.7 159.798 92.2067C159.89 91.8373 159.844 91.468 159.696 91.1506C159.548 90.8346 159.298 90.568 158.978 90.4027L152.283 86.5387C152.174 86.4773 152.079 86.392 152.006 86.2933C151.928 86.1946 151.871 86.076 151.838 85.948C151.804 85.82 151.794 85.6893 151.81 85.564C151.824 85.4426 151.864 85.3227 151.928 85.212C153.564 82.78 155.202 79.5333 156.718 76.92C156.783 76.8066 156.868 76.7133 156.964 76.6387C157.066 76.56 157.183 76.504 157.308 76.4707C157.435 76.436 157.567 76.4267 157.694 76.4413C157.811 76.456 157.931 76.4973 158.046 76.5626L164.81 80.4653C165.127 80.6533 165.483 80.7147 165.823 80.6693C166.163 80.6213 166.486 80.4653 166.736 80.2173C167.471 79.5093 168.246 78.8507 169.052 78.2427C169.856 77.636 170.703 77.076 171.59 76.564C172.46 76.0613 173.37 75.6067 174.308 75.208C175.231 74.816 176.187 74.476 177.171 74.1933C177.518 74.096 177.807 73.888 178.01 73.6186C178.215 73.348 178.332 73.008 178.332 72.6533L178.335 64.8493C178.335 64.7187 178.36 64.5946 178.407 64.484C178.455 64.368 178.53 64.2613 178.62 64.1693C178.71 64.0773 178.816 64.004 178.935 63.956C179.047 63.9106 179.171 63.884 179.303 63.884H188.878C189.01 63.884 189.135 63.9106 189.246 63.956C189.363 64.004 189.471 64.0773 189.562 64.168C189.735 64.344 189.844 64.5853 189.844 64.8493V72.6533C189.844 73.0266 189.975 73.372 190.191 73.644C190.414 73.9253 190.723 74.1293 191.078 74.2133ZM189.391 85.4453C191.079 86.1453 192.606 87.1746 193.884 88.456C195.164 89.736 196.195 91.26 196.895 92.9506C197.57 94.58 197.943 96.3693 197.943 98.2493C197.943 100.132 197.57 101.921 196.895 103.551C196.195 105.24 195.164 106.765 193.884 108.044C192.606 109.325 191.079 110.355 189.391 111.053C187.76 111.729 185.97 112.103 184.09 112.103C182.211 112.103 180.423 111.729 178.795 111.053C177.102 110.355 175.576 109.325 174.295 108.044C173.015 106.765 171.984 105.24 171.286 103.551C170.611 101.921 170.238 100.131 170.238 98.2493C170.238 96.3693 170.611 94.58 171.286 92.9506C171.984 91.26 173.015 89.736 174.295 88.456C175.576 87.1746 177.102 86.1453 178.791 85.4467C180.42 84.772 182.21 84.3987 184.09 84.3987C185.97 84.3987 187.76 84.772 189.391 85.4453ZM194.886 87.4546C193.48 86.052 191.799 84.9173 189.927 84.1427C188.124 83.396 186.154 82.984 184.09 82.984C182.028 82.984 180.056 83.396 178.255 84.1427C176.382 84.9173 174.7 86.052 173.295 87.4546C171.891 88.86 170.758 90.5413 169.982 92.4147C169.236 94.2173 168.824 96.188 168.824 98.2493C168.824 100.313 169.236 102.284 169.982 104.085C170.758 105.957 171.891 107.641 173.295 109.044C174.7 110.449 176.38 111.583 178.252 112.357C180.054 113.105 182.026 113.517 184.09 113.517C186.154 113.517 188.124 113.105 189.927 112.359C191.798 111.583 193.48 110.449 194.886 109.044C196.288 107.641 197.423 105.957 198.199 104.085C198.943 102.284 199.358 100.313 199.358 98.2493C199.358 96.188 198.943 94.2147 198.199 92.4147C197.423 90.5413 196.288 88.86 194.886 87.4546Z" fill="#FB9301"/>
<path fill-rule="evenodd" clip-rule="evenodd" d="M119.67 439.475H461.711C466.009 439.475 469.523 442.991 469.523 447.284C469.523 451.584 466.009 455.098 461.711 455.098H119.67C115.375 455.098 111.859 451.584 111.859 447.284C111.859 442.991 115.375 439.475 119.67 439.475Z" fill="#412F25"/>
<path fill-rule="evenodd" clip-rule="evenodd" d="M103.042 427.359H478.34C483.82 427.359 488.304 431.839 488.304 437.322C488.304 442.8 483.82 447.284 478.34 447.284H103.042C97.5631 447.284 93.0791 442.804 93.0791 437.322C93.0791 431.839 97.5618 427.359 103.042 427.359Z" fill="#BB7C50"/>
<path fill-rule="evenodd" clip-rule="evenodd" d="M330.518 427.359H351.251V447.284H330.518V427.359Z" fill="#8C5237"/>
<path fill-rule="evenodd" clip-rule="evenodd" d="M362.022 427.359H372.792V447.284H362.022V427.359Z" fill="#8C5237"/>
<path fill-rule="evenodd" clip-rule="evenodd" d="M384.104 427.359H389.488V447.284H384.104V427.359Z" fill="#8C5237"/>
<path fill-rule="evenodd" clip-rule="evenodd" d="M407.93 427.359H431.122V447.284H407.93V427.359Z" fill="#8C5237"/>
<path fill-rule="evenodd" clip-rule="evenodd" d="M448.606 427.359H460.202V447.284H448.606V427.359Z" fill="#8C5237"/>
<path fill-rule="evenodd" clip-rule="evenodd" d="M103.847 430.592H286.249C289.506 430.592 292.171 433.257 292.171 436.516C292.171 439.772 289.506 442.44 286.249 442.44H103.847C100.59 442.44 97.9248 439.772 97.9248 436.516C97.9248 433.257 100.59 430.592 103.847 430.592Z" fill="#D29374"/>
</svg>
